<svg width="561" height="80" viewBox="0 0 561 80" fill="none" xmlns="http://www.w3.org/2000/svg">
<path d="M390 72.9885H388.58C383.883 72.9885 379.186 72.9885 374.489 72.9885C374.125 73.0333 373.758 72.9463 373.451 72.7426C373.144 72.5389 372.917 72.2316 372.81 71.8745C369.503 64.6437 366.127 57.4433 362.82 50.2125C362.706 49.836 362.462 49.5141 362.134 49.3058C361.805 49.0976 361.415 49.0168 361.033 49.0783C359.255 49.1593 357.478 49.0783 355.561 49.0783V72.9176H340V7.09114C340.289 7.04473 340.581 7.0143 340.874 7C349.156 7 357.438 7 365.7 7.06076C369.172 7.0673 372.614 7.71578 375.859 8.97478C383.178 11.861 387.14 17.3702 387.537 25.2998C387.664 28.2123 387.4 31.1288 386.753 33.9686C385.65 38.9005 382.542 42.4146 378.262 44.8857L377.16 45.5237L381.301 54.1621C384.022 59.7996 386.733 65.437 389.434 71.0744C389.669 71.6972 389.858 72.337 390 72.9885ZM355.591 18.7779V37.3105C358.878 37.3105 362.105 37.5131 365.293 37.3105C368.769 37.027 370.864 34.799 371.728 31.3862C372.246 29.2531 372.263 27.0256 371.778 24.8845C370.993 21.2286 369.027 19.183 365.382 18.8792C362.185 18.5652 358.957 18.7779 355.591 18.7779Z" fill="#050505"/>
<path d="M273.48 7.00668H289.24V8.39667C289.24 22.7867 289.24 37.1767 289.24 51.5667C289.249 53.1665 289.42 54.7612 289.75 56.3267C290.33 58.9867 291.97 60.8667 294.75 61.1767C297.077 61.4248 299.423 61.4248 301.75 61.1767C304.49 60.8867 306.1 59.0367 306.69 56.4267C307.033 54.9037 307.207 53.3477 307.21 51.7867C307.25 37.3533 307.25 22.9233 307.21 8.49667V7.03668H322.84V51.8267C322.84 62.8867 317.33 69.8267 306.48 72.2067C299.528 73.8561 292.244 73.4177 285.54 70.9467C278.08 68.1067 274.31 62.3967 273.54 54.5867C273.41 53.2767 273.41 51.9467 273.4 50.5867V7.00668H273.48Z" fill="#050505"/>
<path d="M145 7.02667H160.76V8.44666C160.76 22.6267 160.76 36.8167 160.76 50.9967C160.779 52.9526 161.011 54.9006 161.45 56.8067C161.647 57.9525 162.218 59.0009 163.073 59.788C163.929 60.575 165.022 61.0563 166.18 61.1567C168.555 61.4417 170.955 61.4417 173.33 61.1567C176.33 60.7567 177.99 58.7067 178.5 55.3467C178.671 54.2013 178.758 53.0448 178.76 51.8867C178.76 37.46 178.76 23.0333 178.76 8.60666V7.11667H194.44V51.4767C194.558 54.902 193.937 58.3125 192.62 61.4767C191.579 63.8821 190.018 66.0267 188.048 67.7559C186.079 69.4851 183.75 70.7559 181.23 71.4767C173.577 73.945 165.332 73.8784 157.72 71.2867C154.121 70.1293 150.971 67.8804 148.708 64.8521C146.445 61.8238 145.18 58.1661 145.09 54.3867C144.97 51.9167 144.97 49.3867 144.96 46.9467C144.96 34.2067 144.96 21.4633 144.96 8.71667L145 7.02667Z" fill="#050505"/>
<path d="M404.05 7H447V18.6423H419.68V33.3574H442.76V44.7563H419.68V61.3172H447V73H404L404.05 7Z" fill="#050505"/>
<path d="M129.218 34.664V46.3606H105.754V73H90V7H132V18.6662H130.604C122.732 18.6662 114.86 18.6662 106.988 18.6662C105.976 18.6662 105.693 18.9603 105.703 19.9646C105.703 24.4384 105.703 28.9121 105.703 33.3757C105.703 33.7713 105.703 34.1669 105.764 34.6843L129.218 34.664Z" fill="#050505"/>
<path d="M525.98 35.6501L529.824 25.5145C532.056 19.6459 534.279 13.7774 536.541 7.92909C536.691 7.54393 537.182 7.02703 537.542 7.02703C542.958 6.96621 548.374 7.02703 554 7.02703C553.149 8.8109 552.368 10.4731 551.577 12.1455C545.805 24.2678 540.032 36.3934 534.259 48.5224C534.025 49.0763 533.909 49.6737 533.918 50.2759C533.918 57.3708 533.918 64.4658 533.918 71.6114V73H518.031V71.6317C518.031 64.5367 518.031 57.4418 518.031 50.2961C518.028 49.5791 517.875 48.8709 517.581 48.2183C511.274 34.9541 504.954 21.6967 498.621 8.44601C498.41 8.01018 498.23 7.57434 498 7.04729H515.068C518.642 16.4329 522.246 25.8996 525.98 35.6501Z" fill="#050505"/>
<path d="M208 7H260V18.6489H241.707V73H225.982V18.7502H208V7Z" fill="#050505"/>
<path d="M461 73V7H476.659V61.3231H503V73H461Z" fill="#050505"/>
<path d="M0 73C0.522553 71.6976 0.950088 70.6176 1.37763 69.5376C3.64995 63.8437 5.91435 58.1498 8.21834 52.4718C8.3432 52.206 8.40794 51.9158 8.40794 51.6221C8.40794 51.3283 8.3432 51.0381 8.21834 50.7724C6.61444 47.052 5.86288 43.0182 6.01902 38.9679C6.17516 34.9176 7.235 30.9541 9.12053 27.369C11.0061 23.784 13.6692 20.6688 16.914 18.2527C20.1588 15.8367 23.9025 14.1813 27.8695 13.4086C33.2006 12.3442 38.7292 12.9514 43.7044 15.1477C43.9694 15.273 44.2587 15.3379 44.5516 15.3379C44.8445 15.3379 45.1338 15.273 45.3988 15.1477C52.0811 12.5006 58.7687 9.85355 65.4616 7.20646L66 7C65.8496 7.43677 65.7546 7.74646 65.6358 8.04823C62.9966 14.613 60.3733 21.1858 57.7658 27.7665C57.6074 28.1915 57.6074 28.6597 57.7658 29.0847C59.429 32.8588 60.2118 36.9636 60.0548 41.0869C59.8978 45.2101 58.805 49.2431 56.8597 52.8789C54.9144 56.5148 52.1678 59.6576 48.829 62.0682C45.4901 64.4788 41.647 66.0937 37.5921 66.7899C32.3693 67.7136 26.9902 67.0412 22.1531 64.8602C21.906 64.7412 21.6354 64.6794 21.3613 64.6794C21.0872 64.6794 20.8166 64.7412 20.5696 64.8602C13.7922 67.5443 7.01488 70.1967 0 73ZM33.0158 57.7607C36.5432 57.7627 39.991 56.7097 42.9186 54.7362C45.8462 52.7628 48.1206 49.9585 49.451 46.6819C50.7815 43.4053 51.1077 39.8052 50.3878 36.3417C49.6679 32.8782 47.9346 29.7087 45.4096 27.2384C42.8846 24.768 39.6824 23.1089 36.2125 22.4732C32.7426 21.8375 29.1625 22.2541 25.9298 23.6697C22.6972 25.0853 19.9587 27.4356 18.0646 30.4202C16.1705 33.4048 15.2068 36.8881 15.2966 40.4249C15.434 45.0545 17.3584 49.4496 20.664 52.6837C23.9696 55.9178 28.3981 57.738 33.0158 57.7607Z" fill="#050505"/>
</svg>
