<svg width="24" height="24" viewBox="0 0 24 24" fill="none" xmlns="http://www.w3.org/2000/svg">
<g clip-path="url(#clip0_7393_1656)">
<path fill-rule="evenodd" clip-rule="evenodd" d="M12 0C15.1826 0 18.2348 1.26428 20.4853 3.51472C22.7357 5.76516 24 8.8174 24 12C24 15.1826 22.7357 18.2348 20.4853 20.4853C18.2348 22.7357 15.1826 24 12 24C8.8174 24 5.76516 22.7357 3.51472 20.4853C1.26428 18.2348 0 15.1826 0 12C0 8.8174 1.26428 5.76516 3.51472 3.51472C5.76516 1.26428 8.8174 0 12 0ZM18.1947 7.528L9.93067 15.7947L5.79733 11.7947C5.73464 11.7329 5.66034 11.6842 5.57873 11.6514C5.49712 11.6185 5.40981 11.6021 5.32184 11.6031C5.23386 11.6041 5.14696 11.6226 5.06614 11.6574C4.98532 11.6921 4.91218 11.7426 4.85094 11.8057C4.78971 11.8689 4.74158 11.9436 4.70934 12.0254C4.6771 12.1073 4.66138 12.1947 4.66308 12.2827C4.66479 12.3707 4.6839 12.4574 4.7193 12.538C4.7547 12.6185 4.80569 12.6913 4.86933 12.752L9.47467 17.208C9.60039 17.3295 9.76881 17.3967 9.94364 17.3952C10.1185 17.3937 10.2857 17.3236 10.4093 17.2L19.1387 8.472C19.2007 8.41002 19.2498 8.33643 19.2834 8.25545C19.3169 8.17446 19.3342 8.08766 19.3342 8C19.3342 7.91234 19.3169 7.82554 19.2834 7.74456C19.2498 7.66357 19.2007 7.58998 19.1387 7.528C19.0767 7.46602 19.0031 7.41685 18.9221 7.3833C18.8411 7.34976 18.7543 7.33249 18.6667 7.33249C18.579 7.33249 18.4922 7.34976 18.4112 7.3833C18.3302 7.41685 18.2567 7.46602 18.1947 7.528Z" fill="white"/>
</g>
<defs>
<clipPath id="clip0_7393_1656">
<rect width="24" height="24" fill="white"/>
</clipPath>
</defs>
</svg>
