<svg width="24" height="24" viewBox="0 0 24 24" fill="none" xmlns="http://www.w3.org/2000/svg">
<path fill-rule="evenodd" clip-rule="evenodd" d="M12 0C15.1826 0 18.2348 1.26428 20.4853 3.51472C22.7357 5.76516 24 8.8174 24 12C24 15.1826 22.7357 18.2348 20.4853 20.4853C18.2348 22.7357 15.1826 24 12 24C8.8174 24 5.76516 22.7357 3.51472 20.4853C1.26428 18.2348 0 15.1826 0 12C0 8.8174 1.26428 5.76516 3.51472 3.51472C5.76516 1.26428 8.8174 0 12 0ZM7.63867 6.71067C7.51025 6.62193 7.35477 6.58107 7.19932 6.5952C7.04387 6.60933 6.89831 6.67756 6.788 6.788L6.71067 6.88133C6.62229 7.00963 6.58163 7.16483 6.59575 7.31998C6.60988 7.47514 6.6779 7.62044 6.788 7.73067L11.056 11.9987L6.788 16.2693C6.66656 16.3951 6.59937 16.5635 6.60088 16.7383C6.6024 16.9131 6.67252 17.0803 6.79612 17.2039C6.91973 17.3275 7.08694 17.3976 7.26173 17.3991C7.43653 17.4006 7.60493 17.3334 7.73067 17.212L11.9987 12.9413L16.2693 17.212L16.3627 17.2893C16.491 17.3777 16.6462 17.4184 16.8013 17.4042C16.9565 17.3901 17.1018 17.3221 17.212 17.212L17.2893 17.1187C17.3777 16.9904 17.4184 16.8352 17.4042 16.68C17.3901 16.5249 17.3221 16.3796 17.212 16.2693L12.9413 11.9987L17.212 7.73067C17.3334 7.60493 17.4006 7.43653 17.3991 7.26173C17.3976 7.08694 17.3275 6.91973 17.2039 6.79612C17.0803 6.67252 16.9131 6.6024 16.7383 6.60088C16.5635 6.59937 16.3951 6.66656 16.2693 6.788L11.9987 11.056L7.73067 6.788L7.63867 6.71067Z" fill="white"/>
</svg>
