<svg width="169" height="60" viewBox="0 0 169 60" fill="none" xmlns="http://www.w3.org/2000/svg">
<path d="M0 40.1428C0.158826 39.7482 0.288772 39.4209 0.41872 39.0936C1.10937 37.3682 1.79762 35.6428 2.4979 33.9221C2.53585 33.8416 2.55552 33.7537 2.55552 33.6647C2.55552 33.5756 2.53585 33.4877 2.4979 33.4072C2.0104 32.2798 1.78198 31.0574 1.82943 29.8301C1.87689 28.6027 2.19902 27.4016 2.77211 26.3153C3.3452 25.2289 4.15465 24.2849 5.14087 23.5527C6.12709 22.8206 7.26496 22.319 8.4707 22.0848C10.0911 21.7623 11.7714 21.9463 13.2836 22.6118C13.3641 22.6498 13.4521 22.6695 13.5411 22.6695C13.6301 22.6695 13.718 22.6498 13.7986 22.6118C15.8296 21.8097 17.8623 21.0075 19.8965 20.2054L20.0602 20.1428C20.0144 20.2752 19.9856 20.369 19.9495 20.4605C19.1473 22.4498 18.35 24.4415 17.5575 26.4357C17.5093 26.5645 17.5093 26.7064 17.5575 26.8352C18.0629 27.9788 18.3009 29.2227 18.2532 30.4722C18.2054 31.7216 17.8733 32.9438 17.2821 34.0455C16.6908 35.1473 15.856 36.0997 14.8412 36.8301C13.8264 37.5606 12.6583 38.05 11.4258 38.261C9.83837 38.5409 8.20345 38.3371 6.73324 37.6762C6.65815 37.6401 6.5759 37.6214 6.4926 37.6214C6.40929 37.6214 6.32705 37.6401 6.25195 37.6762C4.19203 38.4896 2.13211 39.2933 0 40.1428ZM10.0349 35.5248C11.107 35.5255 12.1549 35.2064 13.0448 34.6083C13.9346 34.0103 14.6259 33.1606 15.0302 32.1676C15.4346 31.1747 15.5338 30.0838 15.315 29.0342C15.0961 27.9847 14.5693 27.0243 13.8019 26.2757C13.0344 25.5271 12.0612 25.0243 11.0065 24.8317C9.95184 24.639 8.8637 24.7653 7.88116 25.1942C6.89862 25.6232 6.0663 26.3354 5.4906 27.2398C4.91491 28.1443 4.62198 29.1998 4.64926 30.2716C4.69104 31.6745 5.27594 33.0063 6.28066 33.9864C7.28537 34.9664 8.63138 35.518 10.0349 35.5248Z" fill="black"/>
<g clip-path="url(#clip0_1_3123)">
<path d="M117.038 39.8539H116.621C115.24 39.8539 113.859 39.8539 112.479 39.8539C112.372 39.8668 112.264 39.8417 112.174 39.783C112.084 39.7243 112.017 39.6358 111.986 39.5328C111.014 37.4488 110.021 35.3735 109.049 33.2895C109.016 33.1809 108.944 33.0882 108.847 33.0281C108.751 32.9681 108.636 32.9448 108.524 32.9626C108.001 32.9859 107.479 32.9626 106.916 32.9626V39.8335H102.342V20.8611C102.427 20.8477 102.513 20.839 102.599 20.8348C105.033 20.8348 107.467 20.8348 109.896 20.8524C110.916 20.8542 111.928 21.0411 112.882 21.404C115.033 22.2359 116.197 23.8237 116.314 26.1092C116.351 26.9486 116.274 27.7892 116.084 28.6077C115.76 30.0291 114.846 31.042 113.588 31.7542L113.264 31.9381L114.481 34.4278C115.281 36.0526 116.078 37.6774 116.872 39.3022C116.941 39.4817 116.996 39.6661 117.038 39.8539ZM106.924 24.2294V29.5709C107.89 29.5709 108.839 29.6293 109.776 29.5709C110.798 29.4892 111.414 28.847 111.667 27.8634C111.82 27.2486 111.825 26.6066 111.682 25.9895C111.451 24.9358 110.874 24.3462 109.802 24.2586C108.862 24.1681 107.914 24.2294 106.924 24.2294Z" fill="black"/>
<path d="M82.955 20.829H87.5551V21.2347C87.5551 25.4349 87.5551 29.6351 87.5551 33.8353C87.5578 34.3022 87.6076 34.7677 87.7039 35.2246C87.8732 36.001 88.3519 36.5498 89.1633 36.6403C89.8425 36.7127 90.5274 36.7127 91.2065 36.6403C92.0063 36.5556 92.4762 36.0156 92.6484 35.2538C92.7485 34.8093 92.7994 34.3551 92.8002 33.8995C92.8119 29.6866 92.8119 25.4748 92.8002 21.2639V20.8377H97.3623V33.9111C97.3623 37.1394 95.754 39.165 92.5871 39.8597C90.558 40.3411 88.4319 40.2132 86.4751 39.4919C84.2977 38.663 83.1973 36.9963 82.9725 34.7167C82.9346 34.3344 82.9346 33.9462 82.9316 33.5492V20.829H82.955Z" fill="black"/>
<path d="M45.4539 20.8348H50.054V21.2493C50.054 25.3882 50.054 29.53 50.054 33.6689C50.0597 34.2398 50.1272 34.8084 50.2554 35.3648C50.3128 35.6992 50.4795 36.0052 50.7293 36.2349C50.9791 36.4647 51.2979 36.6051 51.636 36.6344C52.3292 36.7176 53.0298 36.7176 53.723 36.6344C54.5986 36.5177 55.0831 35.9193 55.232 34.9386C55.282 34.6043 55.3074 34.2667 55.3079 33.9287C55.3079 29.7178 55.3079 25.5069 55.3079 21.296V20.8611H59.8846V33.809C59.919 34.8088 59.7379 35.8043 59.3534 36.7278C59.0496 37.4299 58.5938 38.0559 58.0189 38.5606C57.4441 39.0654 56.7644 39.4363 56.0288 39.6467C53.7951 40.3671 51.3885 40.3477 49.1667 39.5912C48.1162 39.2534 47.1969 38.597 46.5363 37.7131C45.8757 36.8292 45.5066 35.7616 45.4802 34.6584C45.4452 33.9374 45.4452 33.199 45.4423 32.4868C45.4423 28.7682 45.4423 25.0487 45.4423 21.3281L45.4539 20.8348Z" fill="black"/>
<path d="M120.996 20.8376H133.532V24.1885H125.558V28.4237H132.295V31.7044H125.558V36.4709H133.532V39.8334H120.981L120.996 20.8376Z" fill="black"/>
<path d="M40.7138 28.8031V32.1685H33.945V39.8334H29.4004V20.8435H41.5164V24.2002H41.1136C38.8428 24.2002 36.5719 24.2002 34.3011 24.2002C34.0092 24.2002 33.9275 24.2848 33.9304 24.5738C33.9304 25.861 33.9304 27.1482 33.9304 28.4325C33.9304 28.5463 33.9304 28.6601 33.9479 28.809L40.7138 28.8031Z" fill="black"/>
<path d="M156.53 29.0776L157.651 26.1587C158.302 24.4687 158.95 22.7787 159.609 21.0946C159.653 20.9837 159.796 20.8348 159.901 20.8348C161.48 20.8173 163.059 20.8348 164.7 20.8348C164.452 21.3485 164.224 21.8272 163.993 22.3088C162.31 25.7997 160.627 29.2916 158.944 32.7845C158.876 32.944 158.842 33.116 158.845 33.2894C158.845 35.3326 158.845 37.3758 158.845 39.4336V39.8334H154.212V39.4394C154.212 37.3962 154.212 35.353 154.212 33.2953C154.211 33.0888 154.167 32.8848 154.081 32.6969C152.242 28.8771 150.399 25.0593 148.553 21.2434C148.491 21.1179 148.439 20.9924 148.372 20.8406H153.348C154.39 23.5435 155.441 26.2697 156.53 29.0776Z" fill="black"/>
<path d="M63.86 20.8319H78.9942V24.1856H73.6702V39.8335H69.0935V24.2148H63.86V20.8319Z" fill="black"/>
<path d="M137.709 39.8335V20.8611H142.254V36.4768H149.898V39.8335H137.709Z" fill="black"/>
</g>
<path d="M4.08398 51.1018H1.91016V49.7307H4.08398C4.41992 49.7307 4.69336 49.676 4.9043 49.5667C5.11523 49.4534 5.26953 49.2971 5.36719 49.0979C5.46484 48.8987 5.51367 48.6741 5.51367 48.4241C5.51367 48.1702 5.46484 47.9338 5.36719 47.7151C5.26953 47.4963 5.11523 47.3206 4.9043 47.1877C4.69336 47.0549 4.41992 46.9885 4.08398 46.9885H2.51953V54.1428H0.761719V45.6116H4.08398C4.75195 45.6116 5.32422 45.7327 5.80078 45.9749C6.28125 46.2131 6.64844 46.5432 6.90234 46.9651C7.15625 47.387 7.2832 47.8694 7.2832 48.4124C7.2832 48.9631 7.15625 49.4397 6.90234 49.842C6.64844 50.2444 6.28125 50.5549 5.80078 50.7737C5.32422 50.9924 4.75195 51.1018 4.08398 51.1018ZM12.6426 54.26C12.1504 54.26 11.709 54.1819 11.3183 54.0256C10.9277 53.8655 10.5957 53.6448 10.3223 53.3635C10.0527 53.0823 9.84569 52.7561 9.70116 52.385C9.55663 52.01 9.48436 51.6116 9.48436 51.1897V50.9553C9.48436 50.4749 9.55272 50.0354 9.68944 49.637C9.82616 49.2385 10.0215 48.8928 10.2754 48.5999C10.5332 48.3069 10.8457 48.0823 11.2129 47.926C11.5801 47.7659 11.9941 47.6858 12.4551 47.6858C12.9043 47.6858 13.3027 47.76 13.6504 47.9084C13.998 48.0569 14.289 48.2678 14.5234 48.5413C14.7617 48.8147 14.9414 49.1428 15.0625 49.5256C15.1836 49.9045 15.2441 50.3264 15.2441 50.7913V51.4944H10.2051V50.3694H13.5859V50.2405C13.5859 50.0061 13.543 49.7971 13.457 49.6135C13.375 49.426 13.25 49.2776 13.082 49.1682C12.914 49.0588 12.6992 49.0042 12.4375 49.0042C12.2148 49.0042 12.0234 49.053 11.8633 49.1506C11.7031 49.2483 11.5723 49.385 11.4707 49.5608C11.373 49.7366 11.2988 49.9436 11.248 50.1819C11.2012 50.4163 11.1777 50.6741 11.1777 50.9553V51.1897C11.1777 51.4436 11.2129 51.678 11.2832 51.8928C11.3574 52.1077 11.4609 52.2932 11.5937 52.4495C11.7305 52.6057 11.8945 52.7268 12.0859 52.8127C12.2812 52.8987 12.5019 52.9417 12.748 52.9417C13.0527 52.9417 13.3359 52.8831 13.5976 52.7659C13.8633 52.6448 14.0918 52.4631 14.2832 52.2209L15.1035 53.1116C14.9707 53.303 14.789 53.4866 14.5586 53.6624C14.332 53.8381 14.0586 53.9827 13.7383 54.0959C13.418 54.2053 13.0527 54.26 12.6426 54.26ZM19.3086 49.1858V54.1428H17.6211V47.803H19.209L19.3086 49.1858ZM21.2187 47.762L21.1894 49.3264C21.1074 49.3147 21.0078 49.3049 20.8906 49.2971C20.7773 49.2854 20.6738 49.2795 20.58 49.2795C20.3418 49.2795 20.1347 49.3108 19.959 49.3733C19.7871 49.4319 19.6425 49.5198 19.5254 49.637C19.4121 49.7542 19.3261 49.8967 19.2675 50.0647C19.2129 50.2327 19.1816 50.4241 19.1738 50.6389L18.834 50.5334C18.834 50.1233 18.875 49.7463 18.957 49.4026C19.039 49.0549 19.1582 48.7522 19.3144 48.4944C19.4746 48.2366 19.6699 48.0374 19.9004 47.8967C20.1308 47.7561 20.3945 47.6858 20.6914 47.6858C20.7851 47.6858 20.8808 47.6936 20.9785 47.7092C21.0761 47.7209 21.1562 47.7385 21.2187 47.762ZM25.9335 52.9417C26.1406 52.9417 26.3242 52.9026 26.4843 52.8245C26.6445 52.7424 26.7695 52.6292 26.8593 52.4846C26.9531 52.3362 27.0019 52.1624 27.0058 51.9631H28.5937C28.5898 52.4084 28.4707 52.8049 28.2363 53.1526C28.0019 53.4963 27.6875 53.7678 27.2929 53.967C26.8984 54.1624 26.457 54.26 25.9687 54.26C25.4765 54.26 25.0468 54.178 24.6796 54.0139C24.3164 53.8499 24.0136 53.6233 23.7714 53.3342C23.5292 53.0413 23.3476 52.7014 23.2265 52.3147C23.1054 51.9241 23.0449 51.5061 23.0449 51.0608V50.8909C23.0449 50.4417 23.1054 50.0237 23.2265 49.637C23.3476 49.2463 23.5292 48.9065 23.7714 48.6174C24.0136 48.3245 24.3164 48.0959 24.6796 47.9319C25.0429 47.7678 25.4687 47.6858 25.957 47.6858C26.4765 47.6858 26.9316 47.7854 27.3222 47.9846C27.7167 48.1838 28.0253 48.469 28.248 48.8401C28.4746 49.2073 28.5898 49.6428 28.5937 50.1467H27.0058C27.0019 49.9358 26.957 49.7444 26.871 49.5725C26.789 49.4006 26.6679 49.2639 26.5078 49.1624C26.3515 49.0569 26.1582 49.0042 25.9277 49.0042C25.6816 49.0042 25.4804 49.0569 25.3242 49.1624C25.1679 49.2639 25.0468 49.4045 24.9609 49.5842C24.875 49.76 24.8144 49.9612 24.7792 50.1877C24.748 50.4104 24.7324 50.6448 24.7324 50.8909V51.0608C24.7324 51.3069 24.748 51.5432 24.7792 51.7698C24.8105 51.9963 24.8691 52.1975 24.955 52.3733C25.0449 52.5491 25.1679 52.6877 25.3242 52.7893C25.4804 52.8909 25.6835 52.9417 25.9335 52.9417ZM30.7187 51.0374V50.9143C30.7187 50.4495 30.7851 50.0217 30.9179 49.6311C31.0507 49.2366 31.2441 48.8948 31.498 48.6057C31.7519 48.3167 32.0644 48.092 32.4355 47.9319C32.8066 47.7678 33.2324 47.6858 33.7128 47.6858C34.1933 47.6858 34.621 47.7678 34.996 47.9319C35.371 48.092 35.6855 48.3167 35.9394 48.6057C36.1972 48.8948 36.3925 49.2366 36.5253 49.6311C36.6581 50.0217 36.7245 50.4495 36.7245 50.9143V51.0374C36.7245 51.4983 36.6581 51.926 36.5253 52.3206C36.3925 52.7112 36.1972 53.053 35.9394 53.3459C35.6855 53.635 35.373 53.8596 35.0019 54.0198C34.6308 54.1799 34.205 54.26 33.7245 54.26C33.2441 54.26 32.8163 54.1799 32.4413 54.0198C32.0702 53.8596 31.7558 53.635 31.498 53.3459C31.2441 53.053 31.0507 52.7112 30.9179 52.3206C30.7851 51.926 30.7187 51.4983 30.7187 51.0374ZM32.4062 50.9143V51.0374C32.4062 51.303 32.4296 51.551 32.4765 51.7815C32.5234 52.012 32.5976 52.2151 32.6992 52.3909C32.8046 52.5627 32.9413 52.6975 33.1093 52.7952C33.2773 52.8928 33.4824 52.9417 33.7245 52.9417C33.9589 52.9417 34.1601 52.8928 34.3281 52.7952C34.496 52.6975 34.6308 52.5627 34.7324 52.3909C34.8339 52.2151 34.9081 52.012 34.955 51.7815C35.0058 51.551 35.0312 51.303 35.0312 51.0374V50.9143C35.0312 50.6565 35.0058 50.4143 34.955 50.1877C34.9081 49.9573 34.832 49.7542 34.7265 49.5784C34.6249 49.3987 34.4902 49.2581 34.3222 49.1565C34.1542 49.0549 33.9511 49.0042 33.7128 49.0042C33.4745 49.0042 33.2714 49.0549 33.1035 49.1565C32.9394 49.2581 32.8046 49.3987 32.6992 49.5784C32.5976 49.7542 32.5234 49.9573 32.4765 50.1877C32.4296 50.4143 32.4062 50.6565 32.4062 50.9143ZM40.8652 49.1858V54.1428H39.1777V47.803H40.7655L40.8652 49.1858ZM42.7753 47.762L42.746 49.3264C42.664 49.3147 42.5644 49.3049 42.4472 49.2971C42.3339 49.2854 42.2304 49.2795 42.1366 49.2795C41.8984 49.2795 41.6913 49.3108 41.5155 49.3733C41.3437 49.4319 41.1991 49.5198 41.082 49.637C40.9687 49.7542 40.8827 49.8967 40.8241 50.0647C40.7695 50.2327 40.7382 50.4241 40.7304 50.6389L40.3905 50.5334C40.3905 50.1233 40.4316 49.7463 40.5136 49.4026C40.5956 49.0549 40.7148 48.7522 40.871 48.4944C41.0312 48.2366 41.2265 48.0374 41.457 47.8967C41.6874 47.7561 41.9511 47.6858 42.248 47.6858C42.3417 47.6858 42.4374 47.6936 42.5351 47.7092C42.6327 47.7209 42.7128 47.7385 42.7753 47.762ZM48.4159 52.3909C48.4159 52.2698 48.3808 52.1604 48.3105 52.0627C48.2401 51.9651 48.1093 51.8752 47.9179 51.7932C47.7304 51.7073 47.4589 51.6292 47.1034 51.5588C46.7831 51.4885 46.4843 51.4006 46.2069 51.2952C45.9335 51.1858 45.6952 51.0549 45.4921 50.9026C45.2929 50.7502 45.1366 50.5706 45.0233 50.3635C44.9101 50.1526 44.8534 49.9124 44.8534 49.6428C44.8534 49.3772 44.9101 49.1272 45.0233 48.8928C45.1405 48.6584 45.3065 48.4514 45.5214 48.2717C45.7401 48.0881 46.0058 47.9456 46.3183 47.844C46.6347 47.7385 46.9901 47.6858 47.3847 47.6858C47.9355 47.6858 48.4081 47.7737 48.8026 47.9495C49.2011 48.1252 49.5058 48.3674 49.7167 48.676C49.9315 48.9807 50.039 49.3284 50.039 49.719H48.3515C48.3515 49.5549 48.3163 49.4084 48.246 49.2795C48.1796 49.1467 48.0741 49.0432 47.9296 48.969C47.789 48.8909 47.6054 48.8518 47.3788 48.8518C47.1913 48.8518 47.0292 48.885 46.8925 48.9514C46.7558 49.0139 46.6503 49.0999 46.5761 49.2092C46.5058 49.3147 46.4706 49.4319 46.4706 49.5608C46.4706 49.6584 46.4901 49.7463 46.5292 49.8245C46.5722 49.8987 46.6405 49.967 46.7343 50.0295C46.828 50.092 46.9491 50.1506 47.0976 50.2053C47.2499 50.2561 47.4374 50.303 47.6601 50.3459C48.1171 50.4397 48.5253 50.5627 48.8847 50.7151C49.244 50.8635 49.5292 51.0667 49.7401 51.3245C49.9511 51.5784 50.0565 51.9124 50.0565 52.3264C50.0565 52.6077 49.994 52.8655 49.869 53.0999C49.744 53.3342 49.5644 53.5393 49.33 53.7151C49.0956 53.887 48.8144 54.0217 48.4862 54.1194C48.162 54.2131 47.7968 54.26 47.3905 54.26C46.8007 54.26 46.3007 54.1545 45.8905 53.9436C45.4843 53.7327 45.1757 53.4651 44.9647 53.1409C44.7577 52.8127 44.6542 52.4768 44.6542 52.1331H46.2538C46.2616 52.3635 46.3202 52.5491 46.4296 52.6897C46.5429 52.8303 46.6855 52.9319 46.8573 52.9944C47.0331 53.0569 47.2226 53.0881 47.4257 53.0881C47.6444 53.0881 47.8261 53.0588 47.9706 53.0002C48.1151 52.9377 48.2245 52.8557 48.2987 52.7542C48.3769 52.6487 48.4159 52.5276 48.4159 52.3909ZM54.3495 47.803V54.1428H52.6561V47.803H54.3495ZM52.5507 46.1506C52.5507 45.9045 52.6366 45.7014 52.8085 45.5413C52.9804 45.3811 53.2108 45.301 53.4999 45.301C53.785 45.301 54.0136 45.3811 54.1854 45.5413C54.3612 45.7014 54.4491 45.9045 54.4491 46.1506C54.4491 46.3967 54.3612 46.5999 54.1854 46.76C54.0136 46.9202 53.785 47.0002 53.4999 47.0002C53.2108 47.0002 52.9804 46.9202 52.8085 46.76C52.6366 46.5999 52.5507 46.3967 52.5507 46.1506ZM65.3085 52.76V45.1428H67.0077V54.1428H65.4784L65.3085 52.76ZM61.3006 51.0491V50.926C61.3006 50.4417 61.3553 50.0022 61.4647 49.6077C61.5741 49.2092 61.7342 48.8674 61.9452 48.5823C62.1561 48.2971 62.4159 48.0764 62.7245 47.9202C63.0331 47.7639 63.3846 47.6858 63.7792 47.6858C64.1502 47.6858 64.4745 47.7639 64.7518 47.9202C65.0331 48.0764 65.2713 48.2991 65.4667 48.5881C65.6659 48.8733 65.826 49.2112 65.9471 49.6018C66.0682 49.9885 66.1561 50.4124 66.2108 50.8733V51.1428C66.1561 51.5842 66.0682 51.9944 65.9471 52.3733C65.826 52.7522 65.6659 53.0842 65.4667 53.3694C65.2713 53.6506 65.0331 53.8694 64.7518 54.0256C64.4706 54.1819 64.1424 54.26 63.7674 54.26C63.3729 54.26 63.0213 54.1799 62.7127 54.0198C62.4081 53.8596 62.1502 53.635 61.9393 53.3459C61.7323 53.0569 61.5741 52.717 61.4647 52.3264C61.3553 51.9358 61.3006 51.51 61.3006 51.0491ZM62.9881 50.926V51.0491C62.9881 51.3108 63.0077 51.5549 63.0467 51.7815C63.0897 52.0081 63.1581 52.2092 63.2518 52.385C63.3495 52.5569 63.4745 52.6917 63.6268 52.7893C63.7831 52.8831 63.9725 52.9299 64.1952 52.9299C64.4842 52.9299 64.7225 52.8655 64.91 52.7366C65.0975 52.6038 65.2401 52.4221 65.3377 52.1917C65.4393 51.9612 65.4979 51.6956 65.5135 51.3948V50.6272C65.5018 50.3811 65.4667 50.1604 65.4081 49.9651C65.3534 49.7659 65.2713 49.5959 65.162 49.4553C65.0565 49.3147 64.9237 49.2053 64.7635 49.1272C64.6073 49.0491 64.4217 49.01 64.2069 49.01C63.9881 49.01 63.8006 49.0608 63.6444 49.1624C63.4881 49.26 63.3612 49.3948 63.2635 49.5667C63.1698 49.7385 63.0995 49.9417 63.0526 50.176C63.0096 50.4065 62.9881 50.6565 62.9881 50.926ZM71.5233 47.803V54.1428H69.8299V47.803H71.5233ZM69.7245 46.1506C69.7245 45.9045 69.8104 45.7014 69.9823 45.5413C70.1541 45.3811 70.3846 45.301 70.6737 45.301C70.9588 45.301 71.1873 45.3811 71.3592 45.5413C71.535 45.7014 71.6229 45.9045 71.6229 46.1506C71.6229 46.3967 71.535 46.5999 71.3592 46.76C71.1873 46.9202 70.9588 47.0002 70.6737 47.0002C70.3846 47.0002 70.1541 46.9202 69.9823 46.76C69.8104 46.5999 69.7245 46.3967 69.7245 46.1506ZM78.4686 51.0374V50.9143C78.4686 50.4495 78.535 50.0217 78.6678 49.6311C78.8006 49.2366 78.9939 48.8948 79.2479 48.6057C79.5018 48.3167 79.8143 48.092 80.1854 47.9319C80.5564 47.7678 80.9822 47.6858 81.4627 47.6858C81.9432 47.6858 82.3709 47.7678 82.7459 47.9319C83.1209 48.092 83.4354 48.3167 83.6893 48.6057C83.9471 48.8948 84.1424 49.2366 84.2752 49.6311C84.408 50.0217 84.4744 50.4495 84.4744 50.9143V51.0374C84.4744 51.4983 84.408 51.926 84.2752 52.3206C84.1424 52.7112 83.9471 53.053 83.6893 53.3459C83.4354 53.635 83.1229 53.8596 82.7518 54.0198C82.3807 54.1799 81.9549 54.26 81.4744 54.26C80.9939 54.26 80.5662 54.1799 80.1912 54.0198C79.8201 53.8596 79.5057 53.635 79.2479 53.3459C78.9939 53.053 78.8006 52.7112 78.6678 52.3206C78.535 51.926 78.4686 51.4983 78.4686 51.0374ZM80.1561 50.9143V51.0374C80.1561 51.303 80.1795 51.551 80.2264 51.7815C80.2732 52.012 80.3475 52.2151 80.449 52.3909C80.5545 52.5627 80.6912 52.6975 80.8592 52.7952C81.0272 52.8928 81.2322 52.9417 81.4744 52.9417C81.7088 52.9417 81.91 52.8928 82.0779 52.7952C82.2459 52.6975 82.3807 52.5627 82.4822 52.3909C82.5838 52.2151 82.658 52.012 82.7049 51.7815C82.7557 51.551 82.7811 51.303 82.7811 51.0374V50.9143C82.7811 50.6565 82.7557 50.4143 82.7049 50.1877C82.658 49.9573 82.5818 49.7542 82.4764 49.5784C82.3748 49.3987 82.24 49.2581 82.0721 49.1565C81.9041 49.0549 81.701 49.0042 81.4627 49.0042C81.2244 49.0042 81.0213 49.0549 80.8533 49.1565C80.6893 49.2581 80.5545 49.3987 80.449 49.5784C80.3475 49.7542 80.2732 49.9573 80.2264 50.1877C80.1795 50.4143 80.1561 50.6565 80.1561 50.9143ZM88.615 49.1858V54.1428H86.9275V47.803H88.5154L88.615 49.1858ZM90.5252 47.762L90.4959 49.3264C90.4139 49.3147 90.3142 49.3049 90.1971 49.2971C90.0838 49.2854 89.9803 49.2795 89.8865 49.2795C89.6482 49.2795 89.4412 49.3108 89.2654 49.3733C89.0935 49.4319 88.949 49.5198 88.8318 49.637C88.7185 49.7542 88.6326 49.8967 88.574 50.0647C88.5193 50.2327 88.4881 50.4241 88.4803 50.6389L88.1404 50.5334C88.1404 50.1233 88.1814 49.7463 88.2635 49.4026C88.3455 49.0549 88.4646 48.7522 88.6209 48.4944C88.781 48.2366 88.9764 48.0374 89.2068 47.8967C89.4373 47.7561 89.701 47.6858 89.9978 47.6858C90.0916 47.6858 90.1873 47.6936 90.285 47.7092C90.3826 47.7209 90.4627 47.7385 90.5252 47.762ZM94.5193 47.803V54.1428H92.826V47.803H94.5193ZM92.7205 46.1506C92.7205 45.9045 92.8064 45.7014 92.9783 45.5413C93.1502 45.3811 93.3806 45.301 93.6697 45.301C93.9549 45.301 94.1834 45.3811 94.3552 45.5413C94.531 45.7014 94.6189 45.9045 94.6189 46.1506C94.6189 46.3967 94.531 46.5999 94.3552 46.76C94.1834 46.9202 93.9549 47.0002 93.6697 47.0002C93.3806 47.0002 93.1502 46.9202 92.9783 46.76C92.8064 46.5999 92.7205 46.3967 92.7205 46.1506ZM100.248 54.26C99.7556 54.26 99.3142 54.1819 98.9236 54.0256C98.533 53.8655 98.2009 53.6448 97.9275 53.3635C97.658 53.0823 97.4509 52.7561 97.3064 52.385C97.1619 52.01 97.0896 51.6116 97.0896 51.1897V50.9553C97.0896 50.4749 97.158 50.0354 97.2947 49.637C97.4314 49.2385 97.6267 48.8928 97.8806 48.5999C98.1384 48.3069 98.4509 48.0823 98.8181 47.926C99.1853 47.7659 99.5994 47.6858 100.06 47.6858C100.51 47.6858 100.908 47.76 101.256 47.9084C101.603 48.0569 101.894 48.2678 102.129 48.5413C102.367 48.8147 102.547 49.1428 102.668 49.5256C102.789 49.9045 102.849 50.3264 102.849 50.7913V51.4944H97.8103V50.3694H101.191V50.2405C101.191 50.0061 101.148 49.7971 101.062 49.6135C100.98 49.426 100.855 49.2776 100.687 49.1682C100.519 49.0588 100.304 49.0042 100.043 49.0042C99.8201 49.0042 99.6287 49.053 99.4685 49.1506C99.3084 49.2483 99.1775 49.385 99.0759 49.5608C98.9783 49.7366 98.9041 49.9436 98.8533 50.1819C98.8064 50.4163 98.783 50.6741 98.783 50.9553V51.1897C98.783 51.4436 98.8181 51.678 98.8884 51.8928C98.9627 52.1077 99.0662 52.2932 99.199 52.4495C99.3357 52.6057 99.4998 52.7268 99.6912 52.8127C99.8865 52.8987 100.107 52.9417 100.353 52.9417C100.658 52.9417 100.941 52.8831 101.203 52.7659C101.469 52.6448 101.697 52.4631 101.888 52.2209L102.709 53.1116C102.576 53.303 102.394 53.4866 102.164 53.6624C101.937 53.8381 101.664 53.9827 101.344 54.0959C101.023 54.2053 100.658 54.26 100.248 54.26ZM106.879 49.1565V54.1428H105.191V47.803H106.773L106.879 49.1565ZM106.633 50.7502H106.176C106.176 50.2815 106.236 49.8596 106.357 49.4846C106.478 49.1057 106.648 48.7834 106.867 48.5178C107.086 48.2483 107.345 48.0432 107.646 47.9026C107.951 47.7581 108.291 47.6858 108.666 47.6858C108.963 47.6858 109.234 47.7288 109.48 47.8147C109.726 47.9006 109.937 48.0374 110.113 48.2249C110.293 48.4124 110.429 48.6604 110.523 48.969C110.621 49.2776 110.67 49.6545 110.67 50.0999V54.1428H108.97V50.094C108.97 49.8127 108.931 49.594 108.853 49.4377C108.775 49.2815 108.66 49.1721 108.508 49.1096C108.359 49.0432 108.176 49.01 107.957 49.01C107.73 49.01 107.533 49.0549 107.365 49.1448C107.201 49.2346 107.064 49.3596 106.955 49.5198C106.849 49.676 106.769 49.8596 106.715 50.0706C106.66 50.2815 106.633 50.5081 106.633 50.7502ZM116.474 47.803V48.9983H112.783V47.803H116.474ZM113.697 46.2385H115.384V52.2327C115.384 52.4163 115.408 52.5569 115.455 52.6545C115.506 52.7522 115.58 52.8206 115.677 52.8596C115.775 52.8948 115.898 52.9124 116.047 52.9124C116.152 52.9124 116.246 52.9084 116.328 52.9006C116.414 52.8889 116.486 52.8772 116.545 52.8655L116.551 54.1077C116.406 54.1545 116.25 54.1917 116.082 54.219C115.914 54.2463 115.728 54.26 115.525 54.26C115.154 54.26 114.83 54.1995 114.552 54.0784C114.279 53.9534 114.068 53.7542 113.92 53.4807C113.771 53.2073 113.697 52.8479 113.697 52.4026V46.2385ZM122.273 52.7131V49.8889C122.273 49.6858 122.24 49.512 122.174 49.3674C122.107 49.219 122.004 49.1038 121.863 49.0217C121.726 48.9397 121.549 48.8987 121.33 48.8987C121.142 48.8987 120.98 48.9319 120.843 48.9983C120.707 49.0608 120.601 49.1526 120.527 49.2737C120.453 49.3909 120.416 49.5295 120.416 49.6897H118.728C118.728 49.4202 118.791 49.1643 118.916 48.9221C119.041 48.6799 119.222 48.467 119.461 48.2834C119.699 48.0959 119.982 47.9495 120.31 47.844C120.642 47.7385 121.013 47.6858 121.424 47.6858C121.916 47.6858 122.353 47.7678 122.736 47.9319C123.119 48.0959 123.42 48.342 123.638 48.6702C123.861 48.9983 123.972 49.4084 123.972 49.9006V52.6135C123.972 52.9612 123.994 53.2463 124.037 53.469C124.08 53.6877 124.142 53.8792 124.224 54.0432V54.1428H122.519C122.437 53.9709 122.375 53.7561 122.332 53.4983C122.293 53.2366 122.273 52.9749 122.273 52.7131ZM122.496 50.2815L122.508 51.2366H121.564C121.342 51.2366 121.148 51.262 120.984 51.3127C120.82 51.3635 120.685 51.4358 120.58 51.5295C120.474 51.6194 120.396 51.7249 120.345 51.8459C120.299 51.967 120.275 52.0999 120.275 52.2444C120.275 52.3889 120.308 52.5198 120.375 52.637C120.441 52.7502 120.537 52.8401 120.662 52.9065C120.787 52.969 120.933 53.0002 121.101 53.0002C121.355 53.0002 121.576 52.9495 121.763 52.8479C121.951 52.7463 122.095 52.6213 122.197 52.4729C122.302 52.3245 122.357 52.1838 122.361 52.051L122.806 52.7659C122.744 52.926 122.658 53.092 122.549 53.2639C122.443 53.4358 122.308 53.5979 122.144 53.7502C121.98 53.8987 121.783 54.0217 121.552 54.1194C121.322 54.2131 121.049 54.26 120.732 54.26C120.33 54.26 119.965 54.1799 119.636 54.0198C119.312 53.8557 119.054 53.6311 118.863 53.3459C118.675 53.0569 118.582 52.7288 118.582 52.3616C118.582 52.0295 118.644 51.7346 118.769 51.4768C118.894 51.219 119.078 51.0022 119.32 50.8264C119.566 50.6467 119.873 50.512 120.24 50.4221C120.607 50.3284 121.033 50.2815 121.517 50.2815H122.496ZM128.377 49.1155V54.1428H126.683V47.803H128.271L128.377 49.1155ZM128.142 50.7502H127.674C127.674 50.3088 127.726 49.9026 127.832 49.5315C127.941 49.1565 128.099 48.8323 128.306 48.5588C128.517 48.2815 128.777 48.0667 129.086 47.9143C129.394 47.762 129.752 47.6858 130.158 47.6858C130.439 47.6858 130.697 47.7288 130.931 47.8147C131.166 47.8967 131.367 48.0276 131.535 48.2073C131.707 48.3831 131.84 48.6135 131.933 48.8987C132.027 49.1799 132.074 49.5178 132.074 49.9124V54.1428H130.386V50.0999C130.386 49.8108 130.347 49.5881 130.269 49.4319C130.191 49.2756 130.08 49.1663 129.935 49.1038C129.795 49.0413 129.625 49.01 129.425 49.01C129.207 49.01 129.015 49.0549 128.851 49.1448C128.691 49.2346 128.558 49.3596 128.453 49.5198C128.347 49.676 128.269 49.8596 128.218 50.0706C128.168 50.2815 128.142 50.5081 128.142 50.7502ZM131.916 50.5569L131.312 50.6331C131.312 50.219 131.363 49.8342 131.465 49.4788C131.57 49.1233 131.724 48.8108 131.927 48.5413C132.134 48.2717 132.39 48.0627 132.695 47.9143C133 47.762 133.351 47.6858 133.75 47.6858C134.054 47.6858 134.332 47.7307 134.582 47.8206C134.832 47.9065 135.045 48.0452 135.22 48.2366C135.4 48.4241 135.537 48.6702 135.631 48.9749C135.728 49.2795 135.777 49.6526 135.777 50.094V54.1428H134.084V50.094C134.084 49.801 134.045 49.5784 133.966 49.426C133.892 49.2698 133.783 49.1624 133.638 49.1038C133.498 49.0413 133.33 49.01 133.134 49.01C132.931 49.01 132.754 49.051 132.601 49.1331C132.449 49.2112 132.322 49.3206 132.22 49.4612C132.119 49.6018 132.043 49.7659 131.992 49.9534C131.941 50.137 131.916 50.3381 131.916 50.5569ZM141.418 54.26C140.925 54.26 140.484 54.1819 140.093 54.0256C139.703 53.8655 139.371 53.6448 139.097 53.3635C138.828 53.0823 138.621 52.7561 138.476 52.385C138.332 52.01 138.259 51.6116 138.259 51.1897V50.9553C138.259 50.4749 138.328 50.0354 138.465 49.637C138.601 49.2385 138.797 48.8928 139.05 48.5999C139.308 48.3069 139.621 48.0823 139.988 47.926C140.355 47.7659 140.769 47.6858 141.23 47.6858C141.679 47.6858 142.078 47.76 142.425 47.9084C142.773 48.0569 143.064 48.2678 143.299 48.5413C143.537 48.8147 143.716 49.1428 143.838 49.5256C143.959 49.9045 144.019 50.3264 144.019 50.7913V51.4944H138.98V50.3694H142.361V50.2405C142.361 50.0061 142.318 49.7971 142.232 49.6135C142.15 49.426 142.025 49.2776 141.857 49.1682C141.689 49.0588 141.474 49.0042 141.213 49.0042C140.99 49.0042 140.799 49.053 140.638 49.1506C140.478 49.2483 140.347 49.385 140.246 49.5608C140.148 49.7366 140.074 49.9436 140.023 50.1819C139.976 50.4163 139.953 50.6741 139.953 50.9553V51.1897C139.953 51.4436 139.988 51.678 140.058 51.8928C140.133 52.1077 140.236 52.2932 140.369 52.4495C140.506 52.6057 140.67 52.7268 140.861 52.8127C141.056 52.8987 141.277 52.9417 141.523 52.9417C141.828 52.9417 142.111 52.8831 142.373 52.7659C142.638 52.6448 142.867 52.4631 143.058 52.2209L143.879 53.1116C143.746 53.303 143.564 53.4866 143.334 53.6624C143.107 53.8381 142.834 53.9827 142.513 54.0959C142.193 54.2053 141.828 54.26 141.418 54.26ZM148.049 49.1565V54.1428H146.361V47.803H147.943L148.049 49.1565ZM147.802 50.7502H147.345C147.345 50.2815 147.406 49.8596 147.527 49.4846C147.648 49.1057 147.818 48.7834 148.037 48.5178C148.256 48.2483 148.515 48.0432 148.816 47.9026C149.121 47.7581 149.461 47.6858 149.836 47.6858C150.132 47.6858 150.404 47.7288 150.65 47.8147C150.896 47.9006 151.107 48.0374 151.283 48.2249C151.463 48.4124 151.599 48.6604 151.693 48.969C151.791 49.2776 151.84 49.6545 151.84 50.0999V54.1428H150.14V50.094C150.14 49.8127 150.101 49.594 150.023 49.4377C149.945 49.2815 149.83 49.1721 149.677 49.1096C149.529 49.0432 149.345 49.01 149.127 49.01C148.9 49.01 148.703 49.0549 148.535 49.1448C148.371 49.2346 148.234 49.3596 148.125 49.5198C148.019 49.676 147.939 49.8596 147.884 50.0706C147.83 50.2815 147.802 50.5081 147.802 50.7502ZM157.644 47.803V48.9983H153.953V47.803H157.644ZM154.867 46.2385H156.554V52.2327C156.554 52.4163 156.578 52.5569 156.625 52.6545C156.675 52.7522 156.75 52.8206 156.847 52.8596C156.945 52.8948 157.068 52.9124 157.216 52.9124C157.322 52.9124 157.416 52.9084 157.498 52.9006C157.584 52.8889 157.656 52.8772 157.714 52.8655L157.72 54.1077C157.576 54.1545 157.42 54.1917 157.252 54.219C157.084 54.2463 156.898 54.26 156.695 54.26C156.324 54.26 156 54.1995 155.722 54.0784C155.449 53.9534 155.238 53.7542 155.089 53.4807C154.941 53.2073 154.867 52.8479 154.867 52.4026V46.2385ZM159.599 51.0374V50.9143C159.599 50.4495 159.666 50.0217 159.798 49.6311C159.931 49.2366 160.125 48.8948 160.379 48.6057C160.632 48.3167 160.945 48.092 161.316 47.9319C161.687 47.7678 162.113 47.6858 162.593 47.6858C163.074 47.6858 163.502 47.7678 163.877 47.9319C164.252 48.092 164.566 48.3167 164.82 48.6057C165.078 48.8948 165.273 49.2366 165.406 49.6311C165.539 50.0217 165.605 50.4495 165.605 50.9143V51.0374C165.605 51.4983 165.539 51.926 165.406 52.3206C165.273 52.7112 165.078 53.053 164.82 53.3459C164.566 53.635 164.254 53.8596 163.882 54.0198C163.511 54.1799 163.086 54.26 162.605 54.26C162.125 54.26 161.697 54.1799 161.322 54.0198C160.951 53.8596 160.636 53.635 160.379 53.3459C160.125 53.053 159.931 52.7112 159.798 52.3206C159.666 51.926 159.599 51.4983 159.599 51.0374ZM161.287 50.9143V51.0374C161.287 51.303 161.31 51.551 161.357 51.7815C161.404 52.012 161.478 52.2151 161.58 52.3909C161.685 52.5627 161.822 52.6975 161.99 52.7952C162.158 52.8928 162.363 52.9417 162.605 52.9417C162.839 52.9417 163.041 52.8928 163.209 52.7952C163.377 52.6975 163.511 52.5627 163.613 52.3909C163.714 52.2151 163.789 52.012 163.836 51.7815C163.886 51.551 163.912 51.303 163.912 51.0374V50.9143C163.912 50.6565 163.886 50.4143 163.836 50.1877C163.789 49.9573 163.713 49.7542 163.607 49.5784C163.505 49.3987 163.371 49.2581 163.203 49.1565C163.035 49.0549 162.832 49.0042 162.593 49.0042C162.355 49.0042 162.152 49.0549 161.984 49.1565C161.82 49.2581 161.685 49.3987 161.58 49.5784C161.478 49.7542 161.404 49.9573 161.357 50.1877C161.31 50.4143 161.287 50.6565 161.287 50.9143Z" fill="black"/>
<defs>
<clipPath id="clip0_1_3123">
<rect width="135.293" height="53.6013" fill="white" transform="translate(29.4004 -13.4585)"/>
</clipPath>
</defs>
</svg>
