<svg version="1.2" xmlns="http://www.w3.org/2000/svg" viewBox="0 0 167 35" width="167" height="35">
	<title>logo-svg</title>
	<defs>
		<clipPath clipPathUnits="userSpaceOnUse" id="cp1">
			<path d="m29.9-33.03h135.29v53.6h-135.29z"/>
		</clipPath>
	</defs>
	<style>
		.s0 { fill: #ffffff } 
	</style>
	<path id="Layer" fill-rule="evenodd" class="s0" d="m0.5 20.6c0.2-0.4 0.3-0.8 0.4-1.1q1.1-2.6 2.1-5.1 0.1-0.2 0.1-0.3 0-0.1-0.1-0.3c-0.5-1.1-0.7-2.3-0.7-3.5 0.1-1.3 0.4-2.5 1-3.6 0.5-1 1.4-2 2.3-2.7 1-0.8 2.2-1.3 3.4-1.5 1.6-0.3 3.3-0.1 4.8 0.5q0.1 0.1 0.2 0.1 0.2 0 0.3-0.1 3-1.2 6.1-2.4h0.2q-0.1 0.2-0.2 0.3-1.2 3-2.3 6-0.1 0.2 0 0.4c0.5 1.1 0.7 2.4 0.7 3.6-0.1 1.3-0.4 2.5-1 3.6-0.6 1.1-1.4 2-2.5 2.8-1 0.7-2.1 1.2-3.4 1.4-1.6 0.3-3.2 0.1-4.7-0.6q-0.1 0-0.2-0.1-0.1 0.1-0.2 0.1c-2.1 0.8-4.2 1.6-6.3 2.5zm10-4.6c1.1 0 2.2-0.4 3-1 0.9-0.6 1.6-1.4 2-2.4 0.4-1 0.5-2.1 0.3-3.1-0.2-1.1-0.7-2-1.5-2.8-0.8-0.7-1.7-1.2-2.8-1.4-1-0.2-2.1-0.1-3.1 0.3-1 0.5-1.8 1.2-2.4 2.1-0.6 0.9-0.9 1.9-0.9 3 0.1 1.4 0.7 2.7 1.7 3.7 1 1 2.3 1.5 3.7 1.6z"/>
	<g id="Clip-Path" clip-path="url(#cp1)">
		<g id="Layer">
			<path id="Layer" fill-rule="evenodd" class="s0" d="m117.5 20.3c-1.3 0-3.1 0-4.5 0q-0.2 0-0.3-0.1-0.2-0.1-0.2-0.2-1.5-3.2-3-6.3 0-0.1-0.2-0.2-0.1-0.1-0.3-0.1c-0.5 0-1 0-1.6 0v6.9h-4.6v-19q0.2 0 0.3 0 3.7 0 7.3 0 1.5 0 3 0.5c2.1 0.9 3.3 2.5 3.4 4.7q0.1 1.3-0.2 2.5c-0.3 1.5-1.3 2.5-2.5 3.2l-0.3 0.2 1.2 2.5q1.2 2.4 2.4 4.8 0.1 0.3 0.1 0.6zm-10.1-15.6v5.3c1 0 1.9 0.1 2.9 0 1-0.1 1.6-0.7 1.9-1.7q0.2-0.9 0-1.9c-0.2-1-0.8-1.6-1.9-1.7-0.9-0.1-1.9 0-2.9 0z"/>
			<path id="Layer" class="s0" d="m83.5 1.3h4.6v0.4q0 6.3 0 12.6 0 0.7 0.1 1.4c0.2 0.7 0.7 1.3 1.5 1.4q1 0.1 2 0c0.8-0.1 1.3-0.7 1.4-1.4q0.2-0.7 0.2-1.4 0-6.3 0-12.6v-0.4h4.6v13c0 3.3-1.6 5.3-4.8 6-2 0.5-4.2 0.3-6.1-0.4-2.2-0.8-3.3-2.5-3.5-4.8q-0.1-0.5-0.1-1.1v-12.7z"/>
			<path id="Layer" class="s0" d="m46 1.3h4.6v0.4q0 6.2 0 12.4 0 0.9 0.2 1.7 0 0.5 0.4 0.9 0.4 0.3 0.9 0.4 1.1 0.1 2.1 0c0.9-0.2 1.4-0.8 1.5-1.7q0.1-0.5 0.1-1 0-6.4 0-12.7v-0.4h4.6v12.9c0 1-0.2 2-0.5 3q-0.5 1-1.4 1.8-0.9 0.8-2 1.1c-2.2 0.7-4.6 0.7-6.8-0.1-1.1-0.3-2-1-2.7-1.9-0.6-0.8-1-1.9-1-3q-0.1-1.1-0.1-2.2 0-5.6 0-11.1z"/>
			<path id="Layer" class="s0" d="m121.5 1.3h12.5v3.3h-7.9v4.3h6.7v3.2h-6.7v4.8h7.9v3.4h-12.5z"/>
			<path id="Layer" class="s0" d="m41.2 9.2v3.4h-6.8v7.7h-4.5v-19h12.1v3.3h-0.4q-3.4 0-6.8 0c-0.3 0-0.4 0.1-0.4 0.4q0 1.9 0 3.9 0 0.1 0 0.3z"/>
			<path id="Layer" class="s0" d="m157 9.5l1.2-2.9q0.9-2.5 1.9-5.1c0.1-0.1 0.2-0.2 0.3-0.2 1.6-0.1 3.2 0 4.8 0q-0.4 0.7-0.7 1.4-2.5 5.3-5.1 10.5-0.1 0.3-0.1 0.5 0 3.1 0 6.2v0.4h-4.6v-0.4q0-3.1 0-6.2 0-0.3-0.1-0.6-2.8-5.7-5.5-11.4-0.1-0.2-0.2-0.4h4.9c1.1 2.7 2.1 5.4 3.2 8.2z"/>
			<path id="Layer" class="s0" d="m64.4 1.3h15.1v3.3h-5.3v15.7h-4.6v-15.7h-5.2z"/>
			<path id="Layer" class="s0" d="m138.2 20.3v-19h4.6v15.6h7.6v3.4z"/>
		</g>
	</g>
	<path id="Layer" fill-rule="evenodd" class="s0" d="m4.6 31.5h-1.6v3.1h-1.7v-8.6h3.3q1 0 1.7 0.4 0.7 0.4 1.1 1 0.4 0.6 0.4 1.4 0 0.9-0.4 1.5-0.4 0.6-1.1 0.9-0.7 0.3-1.7 0.3zm-1.6 0v-1.3h-0.6v1.3zm1.6-1.3q0.5 0 0.8-0.2 0.3-0.2 0.5-0.5 0.1-0.3 0.1-0.6 0-0.4-0.1-0.8-0.2-0.3-0.5-0.5-0.3-0.2-0.8-0.2h-1.6v2.8zm8.6 4.5q-0.8 0-1.4-0.2-0.5-0.3-1-0.7-0.4-0.4-0.6-1-0.2-0.5-0.2-1.2v-0.2q0-0.7 0.2-1.3 0.2-0.6 0.6-1.1 0.4-0.4 0.9-0.6 0.6-0.3 1.3-0.3 0.7 0 1.2 0.2 0.5 0.3 0.8 0.7 0.4 0.4 0.6 1 0.2 0.5 0.2 1.2v0.7h-4.1q0 0.2 0.1 0.4 0.1 0.3 0.3 0.6 0.2 0.2 0.5 0.3 0.3 0.2 0.7 0.2 0.4 0 0.8-0.2 0.4-0.2 0.7-0.6l0.8 0.9q-0.2 0.3-0.5 0.6-0.4 0.3-0.8 0.4-0.5 0.2-1.1 0.2zm-1.5-2.8q0-0.1 0-0.3v-0.2q0-0.3 0-0.6h-1v1.1zm2.4-1.1v-0.1q0-0.4-0.1-0.7-0.1-0.2-0.4-0.4-0.2-0.2-0.6-0.2-0.4 0-0.6 0.2-0.2 0.1-0.4 0.4-0.1 0.3-0.2 0.6 0 0.1 0 0.2zm5.7 3.8h-1.7v-6.4h1.6v0.8q0.1 0 0.1-0.1 0.2-0.4 0.6-0.6 0.3-0.2 0.8-0.2 0.1 0 0.2 0 0.2 0.1 0.3 0.1v1.6q-0.2-0.1-0.3-0.1-0.2 0-0.4 0-0.3 0-0.6 0.1-0.2 0.1-0.4 0.3-0.1 0.1-0.2 0.3zm6.6-1.2q0.3 0 0.6-0.1 0.2-0.2 0.3-0.4 0.2-0.2 0.2-0.5h1.6q0 0.7-0.4 1.2-0.3 0.5-0.9 0.8-0.6 0.3-1.4 0.3-0.7 0-1.3-0.2-0.5-0.3-0.9-0.7-0.3-0.5-0.5-1-0.2-0.6-0.2-1.3v-0.2q0-0.6 0.2-1.2 0.2-0.6 0.5-1 0.4-0.5 0.9-0.7 0.6-0.3 1.3-0.3 0.8 0 1.4 0.3 0.6 0.3 0.9 0.9 0.4 0.5 0.4 1.3h-1.6q0-0.3-0.2-0.6-0.1-0.2-0.3-0.4-0.3-0.1-0.6-0.1-0.4 0-0.6 0.1-0.2 0.2-0.4 0.4-0.1 0.3-0.2 0.6 0 0.4 0 0.7v0.2q0 0.4 0 0.7 0.1 0.4 0.2 0.6 0.2 0.3 0.4 0.4 0.2 0.2 0.6 0.2zm4.8-1.9v-0.1q0-0.7 0.2-1.3 0.2-0.6 0.6-1 0.3-0.5 0.9-0.7 0.6-0.3 1.3-0.3 0.7 0 1.3 0.3 0.5 0.2 0.9 0.7 0.4 0.4 0.6 1 0.2 0.6 0.2 1.3v0.1q0 0.7-0.2 1.3-0.2 0.6-0.6 1-0.4 0.4-0.9 0.7-0.6 0.2-1.3 0.2-0.7 0-1.3-0.2-0.5-0.3-0.9-0.7-0.4-0.4-0.6-1-0.2-0.6-0.2-1.3zm1.7-0.1v0.1q0 0.4 0 0.7 0.1 0.4 0.3 0.6 0.1 0.3 0.4 0.4 0.2 0.2 0.6 0.2 0.3 0 0.6-0.2 0.2-0.1 0.4-0.4 0.2-0.2 0.2-0.6 0.1-0.3 0.1-0.7v-0.1q0-0.4-0.1-0.8 0-0.3-0.2-0.6-0.2-0.2-0.4-0.4-0.3-0.1-0.6-0.1-0.4 0-0.6 0.1-0.3 0.2-0.4 0.4-0.2 0.3-0.3 0.6 0 0.4 0 0.8zm8.4 3.2h-1.7v-6.4h1.6l0.1 0.8q0 0 0-0.1 0.3-0.3 0.6-0.6 0.4-0.2 0.8-0.2 0.2 0 0.3 0.1 0.1 0 0.2 0v1.6q-0.1 0-0.3-0.1-0.2 0-0.3 0-0.4 0-0.6 0.1-0.3 0.1-0.5 0.3-0.1 0.1-0.2 0.3zm7.6-1.7q0-0.2-0.1-0.4-0.1-0.1-0.4-0.2-0.3-0.2-0.8-0.3-0.5-0.1-0.9-0.2-0.4-0.2-0.7-0.4-0.3-0.3-0.5-0.6-0.2-0.3-0.2-0.7 0-0.4 0.2-0.7 0.2-0.4 0.5-0.7 0.3-0.2 0.8-0.4 0.5-0.1 1.1-0.1 0.8 0 1.4 0.2 0.6 0.3 0.9 0.7 0.3 0.5 0.3 1.1h-1.7q0-0.3-0.1-0.5-0.1-0.2-0.3-0.3-0.2-0.1-0.6-0.1-0.2 0-0.4 0.1-0.2 0.1-0.4 0.3-0.1 0.1-0.1 0.3 0 0.2 0.1 0.3 0.1 0.1 0.2 0.2 0.1 0.1 0.4 0.2 0.2 0 0.5 0.1 0.7 0.2 1.3 0.4 0.5 0.2 0.8 0.6 0.3 0.4 0.3 1 0 0.4-0.2 0.8-0.2 0.3-0.5 0.6-0.4 0.2-0.8 0.4-0.5 0.1-1.1 0.1-0.9 0-1.5-0.3-0.7-0.3-1-0.8-0.3-0.5-0.3-1h1.6q0 0.3 0.2 0.6 0.2 0.2 0.4 0.3 0.3 0.1 0.6 0.1 0.3 0 0.5-0.1 0.3-0.1 0.4-0.3 0.1-0.1 0.1-0.3zm5.9-4.6v6.3h-1.7v-6.3zm-1.8-1.7q0-0.4 0.3-0.6 0.2-0.2 0.7-0.2 0.4 0 0.7 0.2 0.2 0.2 0.2 0.6 0 0.4-0.2 0.6-0.3 0.3-0.7 0.3-0.5 0-0.7-0.3-0.3-0.2-0.3-0.6zm12.8-1h1.7v9h-1.5l-0.1-0.7q-0.3 0.4-0.7 0.6-0.4 0.2-1 0.2-0.6 0-1-0.2-0.5-0.3-0.8-0.7-0.3-0.4-0.5-1-0.1-0.6-0.1-1.3v-0.1q0-0.7 0.1-1.3 0.2-0.6 0.5-1.1 0.3-0.4 0.8-0.6 0.5-0.2 1.1-0.2 0.5 0 0.9 0.2 0.3 0.2 0.6 0.4zm-2.3 5.8v0.2q0 0.3 0 0.7 0.1 0.3 0.2 0.6 0.2 0.2 0.4 0.4 0.2 0.1 0.6 0.1 0.4 0 0.7-0.2 0.3-0.2 0.4-0.5 0.2-0.4 0.2-0.8v-0.8q0-0.3-0.1-0.6-0.1-0.3-0.3-0.5-0.1-0.3-0.4-0.4-0.2-0.1-0.5-0.1-0.3 0-0.6 0.2-0.2 0.1-0.4 0.4-0.1 0.2-0.2 0.6 0 0.3 0 0.7zm8.5-3.1v6.3h-1.7v-6.3zm-1.8-1.6q0-0.4 0.3-0.7 0.2-0.2 0.7-0.2 0.4 0 0.6 0.2 0.3 0.3 0.3 0.7 0 0.3-0.3 0.6-0.2 0.2-0.6 0.2-0.5 0-0.7-0.2-0.3-0.3-0.3-0.6zm8.7 4.8v-0.1q0-0.7 0.2-1.3 0.2-0.6 0.6-1 0.4-0.4 1-0.7 0.5-0.2 1.2-0.2 0.8 0 1.3 0.2 0.6 0.3 1 0.7 0.4 0.4 0.6 1 0.2 0.6 0.2 1.3v0.1q0 0.7-0.2 1.3-0.2 0.6-0.6 1-0.4 0.5-1 0.7-0.5 0.3-1.2 0.3-0.8 0-1.3-0.3-0.6-0.2-1-0.7-0.4-0.4-0.6-1-0.2-0.6-0.2-1.3zm1.7-0.1v0.1q0 0.4 0.1 0.8 0.1 0.3 0.2 0.6 0.2 0.3 0.4 0.4 0.3 0.1 0.7 0.1 0.3 0 0.6-0.1 0.2-0.1 0.4-0.4 0.1-0.3 0.2-0.6 0.1-0.4 0.1-0.8v-0.1q0-0.4-0.1-0.7-0.1-0.4-0.2-0.6-0.2-0.3-0.4-0.4-0.3-0.2-0.7-0.2-0.3 0-0.6 0.2-0.2 0.1-0.4 0.4-0.1 0.2-0.2 0.6-0.1 0.3-0.1 0.7zm8.5 3.2h-1.7v-6.3h1.6l0.1 0.8q0-0.1 0-0.1 0.2-0.4 0.6-0.6 0.3-0.2 0.8-0.2 0.1 0 0.3 0 0.1 0 0.2 0.1v1.5q-0.1 0-0.3 0-0.2 0-0.3 0-0.4 0-0.7 0.1-0.2 0.1-0.4 0.2-0.1 0.2-0.2 0.4zm5.9-6.4v6.4h-1.7v-6.4zm-1.8-1.6q0-0.4 0.3-0.6 0.2-0.3 0.7-0.3 0.4 0 0.6 0.3 0.3 0.2 0.3 0.6 0 0.3-0.3 0.6-0.2 0.2-0.6 0.2-0.5 0-0.7-0.2-0.3-0.3-0.3-0.6zm7.5 8.1q-0.7 0-1.3-0.3-0.6-0.2-1-0.6-0.4-0.4-0.6-1-0.2-0.6-0.2-1.2v-0.2q0-0.7 0.2-1.3 0.2-0.6 0.6-1.1 0.4-0.4 0.9-0.7 0.6-0.2 1.2-0.2 0.7 0 1.2 0.2 0.6 0.3 0.9 0.7 0.4 0.4 0.6 0.9 0.1 0.6 0.1 1.3v0.7h-4q0 0.2 0.1 0.4 0.1 0.3 0.3 0.6 0.2 0.2 0.5 0.3 0.3 0.2 0.6 0.2 0.5 0 0.9-0.2 0.4-0.2 0.7-0.6l0.8 0.9q-0.2 0.3-0.6 0.6-0.3 0.2-0.8 0.4-0.5 0.2-1.1 0.2zm-1.4-2.8q0-0.1 0-0.3v-0.2q0-0.3 0-0.6h-1v1.1zm2.4-1.1v-0.1q0-0.4-0.1-0.7-0.2-0.2-0.4-0.4-0.3-0.2-0.7-0.2-0.3 0-0.5 0.2-0.3 0.1-0.4 0.4-0.2 0.2-0.3 0.6 0 0.1 0 0.2zm5.7 3.8h-1.7v-6.4h1.6l0.1 0.8q0 0 0-0.1 0.3-0.4 0.8-0.6 0.4-0.2 1-0.2 0.4 0 0.8 0.1 0.4 0.2 0.6 0.4 0.3 0.3 0.4 0.8 0.2 0.5 0.2 1.1v4.1h-1.7v-4.1q0-0.4-0.1-0.6-0.1-0.3-0.4-0.4-0.2-0.1-0.5-0.1-0.4 0-0.6 0.2-0.3 0.1-0.4 0.3-0.1 0.1-0.1 0.2zm9.6-6.4v1.2h-1.1v3.3q0 0.2 0.1 0.4 0.1 0.1 0.2 0.2 0.1 0 0.4 0 0.1 0 0.3 0 0.1 0 0.2 0v1.2q-0.2 0.1-0.5 0.1-0.2 0.1-0.5 0.1-0.6 0-1-0.2-0.4-0.2-0.7-0.6-0.2-0.4-0.2-1.1v-3.4h-0.9v-1.2h0.9v-1.5h1.7v1.5zm5.8 2.1q0-0.3-0.1-0.5-0.1-0.2-0.3-0.4-0.2-0.1-0.5-0.1-0.3 0-0.5 0.1-0.2 0.1-0.3 0.3-0.1 0.2-0.1 0.4h-1.7q0-0.4 0.2-0.8 0.1-0.3 0.5-0.6 0.4-0.3 0.8-0.4 0.5-0.2 1.2-0.2 0.7 0 1.3 0.3 0.5 0.2 0.9 0.7 0.3 0.5 0.3 1.2v2.7q0 0.6 0.1 0.9 0 0.3 0.2 0.6v0.1h-1.7q-0.2-0.3-0.2-0.6-0.1 0.1-0.2 0.2-0.3 0.2-0.6 0.3-0.4 0.2-0.8 0.2-0.6 0-1.1-0.3-0.5-0.2-0.8-0.6-0.3-0.5-0.3-1 0-0.5 0.2-0.9 0.2-0.4 0.6-0.7 0.3-0.2 0.9-0.4 0.5-0.1 1.3-0.1h0.7zm-0.7 1.4q-0.3 0-0.6 0-0.2 0.1-0.4 0.2-0.1 0.2-0.2 0.4-0.1 0.1-0.1 0.4 0 0.2 0.1 0.4 0.1 0.1 0.3 0.2 0.2 0.1 0.4 0.1 0.4 0 0.7-0.1 0.3-0.2 0.4-0.4 0.1-0.1 0.1-0.1v-1.1zm6.8 2.9h-1.7v-6.4h1.6l0.1 0.7q0.3-0.4 0.7-0.6 0.5-0.2 1.1-0.2 0.4 0 0.8 0.1 0.3 0.2 0.6 0.4 0.2 0.2 0.3 0.5 0-0.1 0.1-0.1 0.3-0.4 0.7-0.7 0.5-0.2 1.1-0.2 0.5 0 0.8 0.1 0.4 0.2 0.7 0.5 0.2 0.2 0.4 0.7 0.1 0.4 0.1 1.1v4.1h-1.7v-4.1q0-0.4-0.1-0.7-0.1-0.2-0.3-0.3-0.2-0.1-0.5-0.1-0.3 0-0.6 0.1-0.2 0.2-0.3 0.4-0.1 0.1-0.2 0.2 0 0.1 0 0.2v4.3h-1.7v-4.1q0-0.4-0.1-0.7-0.1-0.2-0.3-0.3-0.2-0.1-0.5-0.1-0.4 0-0.6 0.2-0.2 0.1-0.4 0.3 0 0.1-0.1 0.2zm13.1 0.1q-0.8 0-1.4-0.3-0.5-0.2-1-0.6-0.4-0.4-0.6-1-0.2-0.6-0.2-1.2v-0.2q0-0.7 0.2-1.3 0.2-0.6 0.6-1.1 0.4-0.4 0.9-0.7 0.6-0.2 1.3-0.2 0.6 0 1.2 0.2 0.5 0.2 0.8 0.7 0.4 0.4 0.6 0.9 0.2 0.6 0.2 1.3v0.7h-4.1q0 0.2 0.1 0.4 0.1 0.3 0.3 0.6 0.2 0.2 0.5 0.3 0.3 0.2 0.7 0.2 0.4 0 0.8-0.2 0.4-0.2 0.7-0.6l0.8 0.9q-0.2 0.3-0.5 0.6-0.4 0.2-0.8 0.4-0.5 0.2-1.1 0.2zm-1.5-2.8q0-0.1 0-0.3v-0.2q0-0.3 0-0.6h-1v1.1zm2.4-1.1v-0.1q0-0.4-0.1-0.7-0.1-0.3-0.4-0.4-0.2-0.2-0.6-0.2-0.4 0-0.6 0.2-0.2 0.1-0.4 0.4-0.1 0.2-0.2 0.6 0 0.1-0.1 0.2zm5.7 3.8h-1.7v-6.4h1.6l0.1 0.8q0 0 0-0.1 0.3-0.4 0.8-0.6 0.5-0.2 1-0.2 0.5 0 0.8 0.1 0.4 0.2 0.7 0.4 0.2 0.3 0.4 0.8 0.1 0.4 0.1 1.1v4.1h-1.7v-4.1q0-0.4-0.1-0.6-0.1-0.3-0.3-0.4-0.3-0.1-0.6-0.1-0.3 0-0.6 0.2-0.2 0.1-0.4 0.3 0 0.1-0.1 0.2zm9.6-6.4v1.2h-1.1v3.3q0 0.2 0.1 0.4 0.1 0.1 0.2 0.2 0.2 0 0.4 0 0.2 0 0.3 0 0.1 0 0.2 0v1.2q-0.2 0.1-0.5 0.1-0.2 0.1-0.5 0.1-0.6 0-1-0.2-0.4-0.2-0.6-0.6-0.2-0.4-0.2-1.1v-3.4h-1v-1.2h1v-1.5h1.6v1.5zm2 3.3v-0.2q0-0.7 0.2-1.3 0.2-0.5 0.6-1 0.4-0.4 0.9-0.6 0.6-0.3 1.3-0.3 0.7 0 1.3 0.3 0.5 0.2 0.9 0.6 0.4 0.5 0.6 1 0.2 0.6 0.2 1.3v0.2q0 0.6-0.2 1.2-0.2 0.6-0.6 1.1-0.4 0.4-0.9 0.6-0.6 0.3-1.3 0.3-0.7 0-1.3-0.3-0.5-0.2-0.9-0.6-0.4-0.5-0.6-1.1-0.2-0.6-0.2-1.2zm1.7-0.2v0.2q0 0.4 0.1 0.7 0 0.3 0.2 0.6 0.1 0.3 0.4 0.4 0.2 0.2 0.6 0.2 0.4 0 0.6-0.2 0.3-0.1 0.4-0.4 0.2-0.3 0.2-0.6 0.1-0.3 0.1-0.7v-0.2q0-0.4-0.1-0.7 0-0.3-0.2-0.6-0.2-0.3-0.4-0.4-0.3-0.2-0.6-0.2-0.4 0-0.6 0.2-0.3 0.1-0.4 0.4-0.2 0.3-0.2 0.6-0.1 0.3-0.1 0.7z"/>
</svg>