<svg width="25" height="21" viewBox="0 0 25 21" fill="none" xmlns="http://www.w3.org/2000/svg">
<path d="M1.69922 2.24998C1.69922 2.01128 1.79404 1.78236 1.96282 1.61358C2.13161 1.4448 2.36052 1.34998 2.59922 1.34998H22.3992C22.6379 1.34998 22.8668 1.4448 23.0356 1.61358C23.2044 1.78236 23.2992 2.01128 23.2992 2.24998C23.2992 2.48867 23.2044 2.71759 23.0356 2.88637C22.8668 3.05515 22.6379 3.14998 22.3992 3.14998H2.59922C2.36052 3.14998 2.13161 3.05515 1.96282 2.88637C1.79404 2.71759 1.69922 2.48867 1.69922 2.24998ZM1.69922 10.5C1.69922 10.2613 1.79404 10.0324 1.96282 9.86358C2.13161 9.6948 2.36052 9.59998 2.59922 9.59998H22.3992C22.6379 9.59998 22.8668 9.6948 23.0356 9.86358C23.2044 10.0324 23.2992 10.2613 23.2992 10.5C23.2992 10.7387 23.2044 10.9676 23.0356 11.1364C22.8668 11.3052 22.6379 11.4 22.3992 11.4H2.59922C2.36052 11.4 2.13161 11.3052 1.96282 11.1364C1.79404 10.9676 1.69922 10.7387 1.69922 10.5ZM1.69922 18.75C1.69922 18.5113 1.79404 18.2824 1.96282 18.1136C2.13161 17.9448 2.36052 17.85 2.59922 17.85H22.3992C22.6379 17.85 22.8668 17.9448 23.0356 18.1136C23.2044 18.2824 23.2992 18.5113 23.2992 18.75C23.2992 18.9887 23.2044 19.2176 23.0356 19.3864C22.8668 19.5552 22.6379 19.65 22.3992 19.65H2.59922C2.36052 19.65 2.13161 19.5552 1.96282 19.3864C1.79404 19.2176 1.69922 18.9887 1.69922 18.75Z" fill="white" stroke="white" stroke-width="1.5"/>
</svg>
