<svg width="43" height="40" viewBox="0 0 43 40" fill="none" xmlns="http://www.w3.org/2000/svg">
<g id="Group 627076">
<path id="Vector" d="M10.2749 6.46963C14.1677 10.4377 18.0604 14.4049 21.954 18.3713C22.0415 18.4605 22.1283 18.5596 22.2339 18.6201C22.2977 18.657 22.3968 18.6627 22.4606 18.6218C22.5367 18.5726 22.5465 18.4155 22.5032 18.3427C22.423 18.2068 22.2961 18.0963 22.1831 17.9817C18.3395 14.0922 10.4493 6.10868 10.3404 6.01537C10.2872 5.97035 10.207 5.94007 10.1382 5.95971C10.1178 5.96544 10.0989 5.97526 10.0809 5.99081C10.0335 6.03256 10.0155 6.12341 10.04 6.17988C10.0875 6.29038 10.1882 6.38041 10.2749 6.46963Z" fill="#F6F2FE"/>
<path id="Vector_2" d="M9.9903 9.42115C12.8288 12.362 18.7334 18.4622 18.8398 18.5751C18.9397 18.6816 19.0412 18.7994 19.1746 18.8649C19.2491 18.9009 19.3522 18.9246 19.4201 18.8559C19.5707 18.7045 19.3072 18.4475 19.209 18.3468C16.2084 15.2619 13.2086 12.177 10.2056 9.09457C10.1262 9.01354 9.95019 8.82038 9.82332 8.88095C9.79959 8.89241 9.77749 8.91205 9.75784 8.94397C9.63916 9.1355 9.87243 9.2992 9.9903 9.42115Z" fill="#F6F2FE"/>
<path id="Vector_3" d="M30.3535 16.1091C27.3341 13.1797 24.3131 10.2519 21.292 7.32502C21.202 7.23826 21.1144 7.13922 21.0064 7.08356C20.8582 7.00826 20.6855 7.17605 20.7715 7.32338C20.8239 7.41342 20.9065 7.48872 20.9826 7.56402C21.2904 7.86604 21.6022 8.16479 21.9108 8.46599C24.6274 11.1138 27.3423 13.7624 30.0605 16.4086C30.1653 16.5109 30.3437 16.7262 30.5099 16.7041C30.5983 16.6926 30.6408 16.6329 30.6507 16.5617C30.6605 16.4864 30.6318 16.3988 30.5803 16.344C30.5066 16.2646 30.4321 16.1844 30.3535 16.1091Z" fill="#F6F2FE"/>
<path id="Vector_4" d="M21.026 4.73383C24.0167 7.56744 27.0116 10.3978 30.0056 13.2281C30.112 13.3296 30.2495 13.4679 30.4108 13.4401C30.5483 13.4164 30.5843 13.2846 30.5188 13.1716C30.4583 13.0669 30.3461 12.9924 30.2545 12.9056C28.1861 10.9544 26.1194 9.00307 24.0511 7.05343C23.0951 6.15227 22.1375 5.25275 21.1774 4.3565C21.1029 4.28693 21.0317 4.2059 20.9384 4.16006C20.8541 4.11914 20.7272 4.12405 20.6978 4.23455C20.6748 4.32294 20.7575 4.43508 20.8181 4.50792C20.8836 4.58568 20.9515 4.66344 21.026 4.73383Z" fill="#F6F2FE"/>
<path id="Vector_5" d="M27.4035 6.5785C29.2451 8.29241 31.0891 10.0039 32.934 11.7145C33.0461 11.8177 33.2811 12.0296 33.4137 11.8414C33.4284 11.8201 33.4366 11.7972 33.439 11.7743C33.4529 11.6441 33.2933 11.4935 33.2156 11.4215C31.3707 9.71004 29.525 8.00103 27.6752 6.2953C27.5966 6.22327 27.5353 6.14388 27.437 6.09477C27.3814 6.06612 27.3134 6.05302 27.2553 6.07676C27.1489 6.12096 27.1547 6.24864 27.1964 6.33622C27.2422 6.4328 27.3265 6.50647 27.4035 6.5785Z" fill="#F6F2FE"/>
<path id="Vector_6" d="M13.3216 19.3283C13.3969 19.4044 13.4705 19.4928 13.5696 19.5403C13.6555 19.5804 13.7955 19.5698 13.8495 19.4797C13.8601 19.4625 13.8659 19.4388 13.8675 19.4143C13.8691 19.3774 13.8618 19.3381 13.8462 19.3128C13.7881 19.2154 13.6981 19.1196 13.6187 19.0394C12.2927 17.693 10.9643 16.349 9.63671 15.0042C9.57287 14.9404 9.51639 14.861 9.43945 14.8233C9.34778 14.7783 9.21846 14.8045 9.18245 14.9101C9.14071 15.037 9.26921 15.1998 9.35106 15.2825C10.6737 16.6322 11.9964 17.9811 13.3216 19.3283Z" fill="#F6F2FE"/>
<path id="Vector_7" d="M37.1838 2.47399C37.1969 2.96999 37.2207 3.44635 37.2207 3.92189C37.219 8.71743 37.2133 13.5121 37.21 18.3077C37.2092 19.3889 37.2207 20.525 37.2207 21.6774C36.4374 21.7044 22.4837 21.7854 15.6207 21.8256C12.4589 21.8444 5.49434 21.8886 5.2095 21.8886C5.19232 19.3725 5.23733 11.258 5.21114 7.54617C5.20132 6.07616 5.15466 2.76209 5.15466 2.47399C15.8753 2.47399 26.4919 2.47399 37.1838 2.47399ZM4.66603 2.75555C4.66603 3.93499 4.68321 5.11444 4.6914 6.29306C4.7004 7.47905 4.70859 8.66341 4.71677 9.8494C4.71841 10.1154 4.72086 10.3814 4.7225 10.6482C4.73069 11.8195 4.74133 12.9908 4.74133 14.162C4.74133 14.7595 4.75606 20.5348 4.75606 21.0922C4.75606 21.332 4.7446 21.5735 4.7667 21.8125C4.78143 21.9762 4.82399 22.1399 4.96559 22.2389C5.20132 22.405 5.5369 22.3559 5.80782 22.3543C12.5776 22.3199 33.3664 22.1791 36.9915 22.1374C37.6921 22.1292 37.6995 22.103 37.7183 21.4147C37.7191 21.3762 37.7191 21.3377 37.7191 21.2984C37.7068 15.186 37.6946 9.07347 37.6815 2.96017C37.6815 2.80547 37.6831 2.64996 37.67 2.49608C37.634 2.07947 37.5522 1.99271 37.1429 1.96898C36.8155 1.95015 36.4873 1.9436 36.1599 1.9436C34.5868 1.9436 8.54894 2.00745 6.24489 2.00826C5.85939 2.00826 5.47388 2.0189 5.08837 2.03036C4.81172 2.03855 4.65866 2.17524 4.66603 2.4658C4.66848 2.56238 4.66521 2.65896 4.66603 2.75555Z" fill="#F6F2FE"/>
<g id="Clip path group">
<mask id="mask0_266_241" style="mask-type:luminance" maskUnits="userSpaceOnUse" x="0" y="0" width="43" height="41">
<g id="870cae5033">
<path id="Vector_8" d="M0.394287 0.0895996H42.5105V40.0057H0.394287V0.0895996Z" fill="white"/>
</g>
</mask>
<g mask="url(#mask0_266_241)">
<g id="Group">
<path id="Vector_9" d="M39.8922 39.373C39.1441 39.4246 38.3895 39.3984 37.6373 39.3984C27.4544 39.4 17.2724 39.4 7.08958 39.4033C6.18351 39.4033 5.27662 39.4409 4.37056 39.4229C3.68139 39.4098 2.98403 39.3869 2.3055 39.2748C1.45591 39.134 1.04339 38.602 1.03357 37.736C1.02948 37.3726 1.06876 36.9986 1.15143 36.6442C2.05832 32.7678 2.97667 28.8947 3.89583 25.0216C3.99896 24.5886 4.19704 24.2252 4.68158 24.1131C4.9214 24.0574 5.17431 24.073 5.42395 24.0746C5.74398 24.0762 6.06483 24.0771 6.38486 24.0787C6.84567 24.0795 7.30648 24.0803 7.76729 24.0811C8.34842 24.082 8.92955 24.0828 9.51068 24.0828C10.1917 24.0836 10.8726 24.0844 11.5536 24.0844C12.3132 24.0844 13.0736 24.0852 13.8339 24.0852C14.6533 24.0852 15.4726 24.0852 16.2911 24.0852C17.1496 24.0852 18.0066 24.0852 18.8644 24.0852C19.741 24.0852 20.6168 24.0844 21.4926 24.0844C22.3659 24.0844 23.24 24.0836 24.1134 24.0836C24.9646 24.0828 25.8158 24.0828 26.6662 24.082C27.4741 24.082 28.2828 24.0811 29.0906 24.0803C29.8346 24.0803 30.5794 24.0803 31.3234 24.0795C31.984 24.0787 32.6445 24.0787 33.3058 24.0779C33.8616 24.0771 34.4182 24.0771 34.9739 24.0762C35.4061 24.0754 35.8374 24.0754 36.2696 24.0746C36.5561 24.0738 36.8425 24.0738 37.129 24.073C37.2501 24.073 37.3713 24.073 37.4924 24.0721C37.494 24.0721 37.4949 24.0721 37.4965 24.0721C37.6037 24.0705 37.7093 24.068 37.8133 24.0623C37.8444 24.0656 37.8706 24.0689 37.8812 24.068C38.1382 24.064 38.4337 24.1131 38.6031 24.3341C38.7652 24.546 38.8396 24.8161 38.9002 25.0715C39.7711 28.7375 40.6477 32.4019 41.5047 36.072C41.6536 36.7088 41.7396 37.3628 41.8173 38.0135C41.9458 39.0964 40.6984 39.3182 39.8922 39.373ZM3.56843 22.3337C3.51278 22.1119 3.50132 21.8737 3.50132 21.6429C3.50787 15.4911 3.51851 9.34013 3.52997 3.18917C3.53078 2.86014 3.53406 2.53111 3.55534 2.20289C3.61673 1.24772 4.116 0.767261 5.07773 0.760713C7.71982 0.743525 10.3619 0.734522 13.0048 0.726337C20.8541 0.700964 28.7043 0.677227 36.5536 0.656765C36.9383 0.655946 37.3287 0.651854 37.7077 0.707512C38.5589 0.832741 38.9845 1.32956 39.023 2.20044C39.0394 2.56794 39.0336 2.93544 39.0353 3.30294C39.0574 9.30002 39.0803 15.2963 39.0991 21.2934C39.0999 21.6216 39.0885 21.9523 39.0492 22.2772C38.9616 22.9917 38.5041 23.4304 37.792 23.4869C37.4269 23.5156 37.0594 23.518 36.6936 23.518C31.5436 23.5197 10.4438 23.5049 5.04335 23.5262C4.22159 23.5295 3.75014 23.0515 3.56843 22.3337ZM42.4042 37.682C42.3845 37.3562 42.3174 37.0305 42.2421 36.7113C41.3066 32.7825 40.3694 28.8538 39.4216 24.9275C39.3348 24.5657 39.2047 24.2056 38.9755 23.9093C38.9321 23.8544 38.883 23.8053 38.8315 23.7611C39.0402 23.6162 39.2162 23.4214 39.3406 23.2021C39.5174 22.8935 39.5648 22.5391 39.5886 22.1896C39.6139 21.8123 39.6385 21.4276 39.6385 21.0478C39.645 14.9353 39.6418 8.82203 39.6369 2.70872C39.6369 2.43944 39.6074 2.16852 39.5697 1.90087C39.4281 0.893309 38.7291 0.226239 37.7183 0.141116C37.3156 0.107558 36.9096 0.0960992 36.5045 0.0960992C31.4323 0.092825 10.7179 0.143572 5.43214 0.143572C5.26189 0.143572 5.08019 0.141935 4.91076 0.157486C4.41394 0.200866 3.87128 0.380115 3.51278 0.738614C3.14609 1.1053 3.01186 1.62668 2.98076 2.13087C2.96111 2.45908 2.9382 2.7873 2.9382 3.11551C2.93329 8.74509 2.93247 14.3747 2.93001 20.0042C2.93001 20.429 2.91282 20.8555 2.92428 21.2803C2.93492 21.647 2.94802 22.0169 3.00777 22.377C3.13382 23.135 3.43011 23.6154 3.95231 23.8651C3.85818 23.9387 3.77224 24.0288 3.69039 24.1352C3.46285 24.4315 3.36054 24.8955 3.27296 25.2565C2.35871 29.0322 1.451 32.8087 0.557208 36.5885C0.4639 36.9789 0.430342 37.3947 0.44262 37.7966C0.472904 38.8279 1.11133 39.5989 2.12134 39.8011C2.68528 39.914 3.26723 39.9885 3.84099 39.9893C9.77996 40.0024 15.7206 39.9975 21.6595 39.9975C24.7452 40 27.8309 39.9991 30.9167 40.0008C32.6805 40.0024 34.4444 40.0024 36.2082 40.0049C36.8548 40.0057 37.5022 40.0073 38.1488 40.009C38.5695 40.0098 38.9894 39.9983 39.4093 39.991C39.8104 39.9836 40.1942 39.9959 40.5929 39.9459C41.2452 39.8633 41.9016 39.6398 42.2388 39.0325C42.4705 38.6143 42.4328 38.1445 42.4042 37.682Z" fill="#F6F2FE"/>
</g>
</g>
</g>
<path id="Vector_10" d="M37.5535 32.798C37.5151 32.8299 37.461 32.8504 37.3874 32.8569C37.222 32.8725 37.0616 32.8758 36.8963 32.8758C36.4821 32.8758 36.068 32.8758 35.6538 32.8758C35.6244 32.6269 35.5728 32.1866 35.5081 31.6398C36.2399 31.639 36.9086 31.639 37.4995 31.639C37.5413 31.8985 37.5838 32.1579 37.6256 32.4174C37.6509 32.5754 37.6501 32.7203 37.5535 32.798ZM30.936 32.8799C30.9197 32.6106 30.8927 32.1727 30.8599 31.6415C31.4943 31.6407 32.1106 31.6407 32.7048 31.6407C32.7474 32.1694 32.7834 32.6065 32.8055 32.8782C32.1826 32.879 31.5597 32.879 30.936 32.8799ZM14.5343 32.902C14.5589 32.6474 14.6039 32.1989 14.6587 31.6439C15.2816 31.6439 15.9233 31.6439 16.5789 31.6439C16.5404 32.1858 16.5093 32.6294 16.4913 32.8954C16.2171 32.8962 15.9438 32.8962 15.6704 32.897C15.2922 32.8979 14.9133 32.9003 14.5343 32.902ZM5.78137 32.965C4.92359 32.9707 4.88185 32.9445 5.05946 32.1367C5.09548 31.973 5.12903 31.8093 5.16341 31.6448H5.54155C5.63404 31.6448 6.23727 31.6448 7.22273 31.6448C7.1237 32.2423 7.04594 32.7162 7.00583 32.956C6.59741 32.9593 6.1898 32.9625 5.78137 32.965ZM5.50472 29.9259H5.71507C5.81002 29.9259 6.45581 29.9259 7.50757 29.9259C7.43554 30.3581 7.36597 30.7804 7.30131 31.1692C6.25773 31.1692 5.59312 31.1692 5.44006 31.1692H5.26163C5.34512 30.7542 5.42533 30.3401 5.50472 29.9259ZM5.84603 28.2063H6.1587C6.24791 28.2063 6.83477 28.2063 7.7924 28.2063C7.72529 28.6082 7.65571 29.0297 7.58614 29.4496C6.47873 29.4487 5.77155 29.4487 5.6144 29.4487H5.59721C5.67742 29.0346 5.75927 28.6196 5.84603 28.2063ZM6.08831 27.107C6.22254 26.5406 6.38378 26.5341 7.01729 26.5341C7.36842 26.5333 7.71874 26.5341 8.06905 26.5333C8.01258 26.8721 7.94464 27.2822 7.87098 27.7299C6.85523 27.7299 6.20862 27.7299 6.05966 27.7299H5.94753C5.99254 27.522 6.04001 27.3149 6.08831 27.107ZM21.133 26.5333C21.1289 26.8746 21.1248 27.2847 21.1199 27.7316C20.5191 27.7316 19.9208 27.7316 19.329 27.7316C19.3462 27.2863 19.3609 26.877 19.3732 26.5333C19.9601 26.5333 20.5461 26.5333 21.133 26.5333ZM27.8872 26.5325C27.9003 26.8746 27.9166 27.2847 27.9346 27.7324C27.3134 27.7324 26.6823 27.7324 26.0456 27.7324C26.0333 27.2855 26.021 26.8754 26.0112 26.5325C26.6201 26.5325 27.2291 26.5325 27.8381 26.5325C27.8544 26.5325 27.8708 26.5325 27.8872 26.5325ZM36.7645 27.2151C36.794 27.3878 36.8234 27.5605 36.8529 27.7332C36.3094 27.7332 35.7029 27.7332 35.0449 27.7332C34.9917 27.283 34.9426 26.8697 34.9008 26.5251C35.2266 26.5243 35.5515 26.5235 35.8773 26.5235C36.6008 26.5226 36.6458 26.5349 36.7645 27.2151ZM36.9331 28.1997C37.0035 28.6172 37.0739 29.0346 37.1427 29.4528C36.5763 29.4528 35.9411 29.4528 35.2487 29.4528C35.1987 29.0305 35.1488 28.6057 35.1005 28.2005C35.7684 28.1997 36.3831 28.1997 36.9331 28.1997ZM30.7527 29.921C31.3756 29.921 31.9804 29.921 32.564 29.921C32.6 30.3556 32.6344 30.7804 32.6663 31.1717C32.0754 31.1717 31.4615 31.1717 30.8305 31.1717C30.8067 30.7804 30.7797 30.3556 30.7527 29.921ZM28.4806 31.1717C28.465 30.7812 28.447 30.3573 28.429 29.9218C29.0813 29.9218 29.7222 29.9218 30.3459 29.9218C30.3721 30.3548 30.3983 30.7796 30.422 31.1717C29.7902 31.1717 29.1411 31.1717 28.4806 31.1717ZM21.4874 31.6431C22.1561 31.6431 22.8273 31.6431 23.4976 31.6431C23.5025 32.1817 23.5058 32.622 23.5074 32.8856C22.8305 32.8856 22.1528 32.8864 21.4759 32.8872C21.4784 32.622 21.4825 32.1809 21.4874 31.6431ZM17.1068 29.9243C17.6757 29.9243 18.2552 29.9243 18.8404 29.9243C18.8232 30.3581 18.8068 30.7812 18.7921 31.17C18.1938 31.17 17.602 31.17 17.0209 31.17C17.0479 30.7804 17.0765 30.3573 17.1068 29.9243ZM14.8281 29.9243C15.4363 29.9243 16.0616 29.9243 16.7 29.9243C16.6698 30.3573 16.6395 30.7804 16.6125 31.17C15.9618 31.17 15.325 31.17 14.7054 31.17C14.7438 30.7812 14.7856 30.3581 14.8281 29.9243ZM12.3719 31.17C12.4185 30.7796 12.4693 30.3573 12.5208 29.9251C13.1281 29.9251 13.7633 29.9251 14.4205 29.9251C14.3772 30.3589 14.3346 30.7812 14.2961 31.17C13.6307 31.17 12.9874 31.17 12.3719 31.17ZM9.82553 29.9251C9.76497 30.3573 9.70603 30.7796 9.6512 31.1692C8.92765 31.1692 8.27695 31.1692 7.71465 31.1692C7.77849 30.7796 7.84806 30.3573 7.91927 29.9251C8.47093 29.9251 9.11099 29.9251 9.82553 29.9251ZM10.0654 28.2055C10.0089 28.6073 9.94994 29.0289 9.89183 29.4496C9.18793 29.4496 8.55114 29.4496 7.99784 29.4496C8.0666 29.0289 8.13617 28.6073 8.20165 28.2063C8.73694 28.2063 9.3639 28.2063 10.0654 28.2055ZM10.1316 27.7299C9.44002 27.7299 8.81879 27.7299 8.2794 27.7299C8.35389 27.2789 8.42019 26.8689 8.47584 26.5333C9.08316 26.5333 9.69048 26.5333 10.2986 26.5333C10.252 26.8713 10.1947 27.2806 10.1316 27.7299ZM12.3751 27.7307C11.7261 27.7299 11.1114 27.7299 10.5393 27.7299C10.6015 27.2781 10.6579 26.868 10.7038 26.5333C11.3086 26.5333 11.9143 26.5333 12.5192 26.5333C12.4783 26.8738 12.4292 27.2838 12.3751 27.7307ZM14.6391 27.7307C13.9974 27.7307 13.3761 27.7307 12.7811 27.7307C12.8351 27.2814 12.8834 26.8713 12.9235 26.5333C13.5349 26.5333 14.1463 26.5333 14.7586 26.5333C14.7242 26.8762 14.6833 27.2855 14.6391 27.7307ZM16.8539 27.7307C16.2368 27.7307 15.6327 27.7307 15.0442 27.7307C15.0884 27.2847 15.1285 26.8746 15.1621 26.5333C15.7539 26.5333 16.3456 26.5333 16.9374 26.5333C16.9137 26.8746 16.885 27.2847 16.8539 27.7307ZM17.2582 27.7307C17.2885 27.2838 17.3164 26.873 17.3401 26.5333C17.8836 26.5333 18.4279 26.5333 18.9722 26.5333C18.9583 26.877 18.9427 27.2863 18.9255 27.7316C18.3624 27.7307 17.8058 27.7307 17.2582 27.7307ZM14.9976 28.2055C15.5893 28.2055 16.1983 28.2046 16.8204 28.2046C16.7917 28.6082 16.7622 29.0297 16.7328 29.4504C16.0993 29.4504 15.4797 29.4504 14.8748 29.4504C14.9165 29.0305 14.9583 28.6082 14.9976 28.2055ZM12.7246 28.2055C13.3213 28.2055 13.945 28.2055 14.5916 28.2055C14.5515 28.609 14.5098 29.0305 14.4672 29.4504C13.8149 29.4504 13.183 29.4496 12.5773 29.4496C12.6272 29.0289 12.6772 28.6073 12.7246 28.2055ZM12.1116 29.9251C12.0592 30.3581 12.0084 30.7804 11.9618 31.17C11.2906 31.1692 10.6547 31.1692 10.0629 31.1692C10.1177 30.7788 10.1758 30.3565 10.2356 29.9251C10.82 29.9251 11.447 29.9251 12.1116 29.9251ZM10.3011 29.4496C10.36 29.028 10.4181 28.6065 10.473 28.2055C11.0467 28.2055 11.6639 28.2055 12.3187 28.2055C12.2695 28.6082 12.2188 29.0297 12.1681 29.4496C11.5092 29.4496 10.8847 29.4496 10.3011 29.4496ZM18.8584 29.4504C18.2781 29.4504 17.7043 29.4504 17.1396 29.4504C17.1682 29.0297 17.1977 28.6073 17.2255 28.2046C17.778 28.2046 18.3387 28.2046 18.9075 28.2046C18.8911 28.609 18.8748 29.0305 18.8584 29.4504ZM21.1019 29.4512C20.4856 29.4512 19.8725 29.4512 19.2652 29.4504C19.2807 29.0305 19.2963 28.609 19.3118 28.2046C19.9069 28.2046 20.5101 28.2046 21.115 28.2038C21.1109 28.6073 21.1068 29.0297 21.1019 29.4512ZM23.4706 28.2038C23.4739 28.6082 23.4771 29.0305 23.4804 29.4512C22.8232 29.4512 22.1643 29.4512 21.5078 29.4512C21.5119 29.0305 21.5152 28.6073 21.5193 28.2038C22.1684 28.2038 22.8199 28.2038 23.4706 28.2038ZM23.4665 27.7316C22.8191 27.7316 22.17 27.7316 21.5234 27.7316C21.5275 27.2847 21.5308 26.8746 21.534 26.5333C22.1749 26.5333 22.8158 26.5325 23.4575 26.5325C23.4599 26.8762 23.4632 27.2855 23.4665 27.7316ZM23.87 27.7316C23.8659 27.2863 23.8618 26.877 23.8586 26.5325C24.4421 26.5325 25.0257 26.5325 25.6101 26.5325C25.6191 26.8746 25.6306 27.2847 25.642 27.7324C25.0552 27.7324 24.4634 27.7316 23.87 27.7316ZM25.6879 29.4512C25.0912 29.4512 24.4896 29.4512 23.8864 29.4512C23.8823 29.0313 23.8782 28.6082 23.8749 28.2038C24.4708 28.203 25.065 28.203 25.6551 28.203C25.6658 28.6073 25.6772 29.0305 25.6879 29.4512ZM26.1078 29.9227C26.7536 29.9227 27.3928 29.9227 28.023 29.9218C28.0402 30.3565 28.0574 30.7804 28.073 31.1717C27.4378 31.1717 26.7937 31.1708 26.1421 31.1708C26.1315 30.7812 26.1192 30.3573 26.1078 29.9227ZM23.8905 29.9227C24.497 29.9227 25.101 29.9227 25.701 29.9227C25.7124 30.3565 25.7239 30.7804 25.7345 31.1708C25.1272 31.1708 24.515 31.1708 23.9019 31.1708C23.8987 30.7812 23.8946 30.3581 23.8905 29.9227ZM21.0847 31.17C20.452 31.17 19.8226 31.17 19.1997 31.17C19.2144 30.7812 19.2308 30.3581 19.2472 29.9235C19.8586 29.9235 20.4766 29.9235 21.097 29.9235C21.0929 30.3565 21.088 30.7804 21.0847 31.17ZM21.5038 29.9235C22.1618 29.9235 22.824 29.9235 23.4845 29.9227C23.4878 30.3573 23.4911 30.7812 23.4943 31.1708C22.8264 31.1708 22.1577 31.1708 21.4915 31.1708C21.4956 30.7804 21.4997 30.3573 21.5038 29.9235ZM28.0042 29.452C27.3764 29.452 26.738 29.452 26.0939 29.452C26.0824 29.0305 26.0701 28.6073 26.0595 28.203C26.6979 28.203 27.3306 28.203 27.9535 28.2022C27.9698 28.6065 27.987 29.0305 28.0042 29.452ZM30.2411 28.2022C30.2657 28.6057 30.2919 29.0289 30.3173 29.452C29.696 29.452 29.0592 29.452 28.4102 29.452C28.3922 29.0305 28.375 28.6073 28.3578 28.2022C28.9987 28.2022 29.6281 28.2022 30.2411 28.2022ZM30.2125 27.7324C29.6019 27.7324 28.9758 27.7324 28.339 27.7324C28.3201 27.2855 28.303 26.8754 28.2882 26.5316C28.9054 26.5316 29.5217 26.5308 30.1388 26.53C30.1593 26.8697 30.1847 27.2814 30.2125 27.7324ZM32.3864 27.7324C31.8159 27.7324 31.225 27.7324 30.6168 27.7324C30.5882 27.283 30.5628 26.8713 30.5407 26.53C31.1235 26.5292 31.7054 26.5284 32.2874 26.5276C32.316 26.8697 32.3496 27.2822 32.3864 27.7324ZM32.7907 27.7324C32.7539 27.2847 32.7195 26.8713 32.6909 26.5276C33.2925 26.5267 33.8949 26.5259 34.4973 26.5251C34.5374 26.8664 34.5857 27.2806 34.6389 27.7332C34.0569 27.7332 33.439 27.7332 32.7907 27.7324ZM32.5264 29.4528C31.9461 29.452 31.3436 29.452 30.7241 29.452C30.6979 29.0297 30.6709 28.6065 30.6455 28.2022C31.2577 28.2014 31.8511 28.2014 32.4241 28.2014C32.4568 28.6057 32.492 29.0297 32.5264 29.4528ZM32.8292 28.2014C33.484 28.2014 34.1069 28.2005 34.6937 28.2005C34.7412 28.6049 34.7911 29.0297 34.8402 29.4528C34.2403 29.4528 33.6027 29.4528 32.9332 29.4528C32.8988 29.0305 32.8636 28.6065 32.8292 28.2014ZM7.42163 32.9527C7.46337 32.6957 7.54031 32.2267 7.63607 31.6448C8.1951 31.6448 8.84989 31.6448 9.5849 31.6448C9.50632 32.212 9.44166 32.6736 9.40483 32.9363C8.74431 32.9421 8.08215 32.947 7.42163 32.9527ZM9.81899 32.9331C9.85664 32.6605 9.91966 32.203 9.99742 31.6448C10.59 31.6448 11.2284 31.6448 11.9045 31.6448C11.8366 32.2087 11.7817 32.663 11.7514 32.9183C11.1073 32.9232 10.4631 32.9273 9.81899 32.9331ZM12.164 32.9151C12.1951 32.6523 12.2491 32.2005 12.3154 31.6448C12.9333 31.6439 13.5791 31.6439 14.2487 31.6439C14.193 32.2046 14.1472 32.6548 14.1226 32.9036C13.4695 32.9069 12.8171 32.9101 12.164 32.9151ZM16.9014 32.8946C16.9202 32.6278 16.9505 32.185 16.9881 31.6439C17.5742 31.6439 18.17 31.6439 18.7733 31.6439C18.752 32.1923 18.7348 32.6368 18.725 32.8921C18.1177 32.893 17.5095 32.8938 16.9014 32.8946ZM19.1342 32.8913C19.144 32.6392 19.1604 32.1948 19.1817 31.6439C19.8087 31.6439 20.4422 31.6439 21.079 31.6431C21.074 32.1768 21.0691 32.6163 21.0667 32.888C20.4225 32.8889 19.7784 32.8905 19.1342 32.8913ZM23.9167 32.8848C23.915 32.631 23.9109 32.1891 23.906 31.6431C24.5223 31.6431 25.137 31.6423 25.7468 31.6423C25.7607 32.1751 25.773 32.6138 25.7804 32.8831C25.1591 32.8839 24.5379 32.884 23.9167 32.8848ZM26.1896 32.8831C26.1822 32.6237 26.17 32.1833 26.1552 31.6423C26.8084 31.6423 27.455 31.6423 28.0918 31.6423C28.1131 32.1735 28.1311 32.6114 28.1417 32.8815C27.491 32.8823 26.8403 32.8823 26.1896 32.8831ZM28.551 32.8815C28.5403 32.6229 28.5223 32.1833 28.5002 31.6415C29.164 31.6415 29.8155 31.6415 30.4507 31.6415C30.4834 32.1629 30.5096 32.5983 30.5268 32.8799C29.8687 32.8807 29.2098 32.8807 28.551 32.8815ZM33.0756 31.1717C33.0428 30.7821 33.0076 30.3565 32.9724 29.921C33.6477 29.921 34.291 29.9202 34.8951 29.9202C34.9466 30.3548 34.9958 30.7804 35.0424 31.1725C34.4244 31.1725 33.7664 31.1725 33.0756 31.1717ZM33.2164 32.8782C33.1951 32.6229 33.1591 32.1833 33.114 31.6407C33.8114 31.6398 34.4744 31.6398 35.0972 31.6398C35.1586 32.1686 35.2102 32.6057 35.2421 32.8766C34.5669 32.8766 33.8916 32.8774 33.2164 32.8782ZM37.4234 31.1725C36.8374 31.1725 36.176 31.1725 35.4525 31.1725C35.4066 30.7821 35.3559 30.3565 35.3043 29.9202C36.005 29.9202 36.6475 29.9194 37.2196 29.9194C37.2883 30.3368 37.3563 30.7551 37.4234 31.1725ZM37.1279 26.7944C37.0101 26.1977 36.8177 26.0643 36.2153 26.0365C36.1195 26.0324 36.023 26.0348 35.9264 26.0348C35.8822 26.0348 7.46583 26.0283 6.59741 26.0397C6.34859 26.043 6.07275 26.0946 5.90906 26.3C5.73799 26.5145 5.68643 26.7772 5.62586 27.0367C5.22234 28.7678 4.97188 30.5463 4.5741 32.2791C4.53563 32.4469 4.51517 32.6245 4.52171 32.7964C4.53727 33.2441 5.03 33.3505 5.39423 33.3489C5.54319 33.348 5.69216 33.3472 5.8403 33.3472C6.34204 33.3464 29.5945 33.3489 31.0875 33.3489C32.1212 33.3489 36.1556 33.3611 37.1394 33.3521C38.0463 33.3439 38.2034 33.1598 38.0741 32.2766C37.9849 31.6652 37.3669 28.0074 37.1279 26.7944Z" fill="#F6F2FE"/>
<path id="Vector_11" d="M24.8376 38.3974C23.8939 38.4072 19.0779 38.3974 17.9598 38.395C17.4426 38.3941 17.278 38.2673 17.3386 37.8016C17.454 36.902 17.5948 36.005 17.7765 35.1177C17.8919 34.5472 17.9918 34.4989 18.5713 34.4981C20.4783 34.494 22.3862 34.4965 24.2933 34.5039C24.732 34.5047 24.8524 34.5587 24.9408 35.0064C25.1274 35.9509 25.2747 36.9053 25.3934 37.8613C25.4449 38.2755 25.2992 38.3925 24.8376 38.3974ZM25.3926 35.1374C25.2289 34.2657 24.9874 34.057 24.1165 34.0537C22.2266 34.0471 20.3367 34.0512 18.4468 34.0561C17.8493 34.0578 17.5719 34.2288 17.4467 34.8042C17.2388 35.7668 17.053 36.7375 16.9335 37.714C16.8328 38.5398 17.152 38.8353 17.9934 38.8386C19.1123 38.8435 20.2303 38.8394 21.3492 38.8394C21.3492 38.8427 21.3492 38.8451 21.3492 38.8476C21.5612 38.8476 21.7732 38.8476 21.9852 38.8476C22.969 38.8451 23.9528 38.8541 24.9358 38.8353C25.5554 38.8222 25.8485 38.4973 25.8427 37.8826C25.8419 37.7484 25.8206 37.6133 25.7977 37.4799C25.6651 36.699 25.5382 35.9166 25.3926 35.1374Z" fill="#F6F2FE"/>
<path id="Vector_12" d="M20.7459 1.20682C20.7778 1.15035 20.8474 1.11843 20.9112 1.12988C20.9153 1.1307 20.9202 1.13152 20.9243 1.13234C20.9963 1.15035 21.0438 1.20109 21.0455 1.27967C21.0463 1.34678 21.0291 1.41799 20.9669 1.45237C20.8908 1.49411 20.8032 1.47447 20.7533 1.40162C20.714 1.34515 20.7107 1.26657 20.7459 1.20682ZM20.8842 1.86489C21.1306 1.85998 21.3802 1.58906 21.3884 1.32059C21.395 1.12006 21.2828 0.932628 21.1052 0.840957C20.7909 0.678896 20.3718 0.902344 20.3677 1.26903C20.3661 1.41308 20.3915 1.53504 20.4799 1.65044C20.5724 1.77076 20.7295 1.86898 20.8842 1.86489Z" fill="#F6F2FE"/>
<path id="Vector_13" d="M4.38614 25.1241C4.13159 26.2102 3.87622 27.2972 3.62249 28.3841C3.58811 28.529 3.81074 28.5912 3.84512 28.4455C4.09967 27.3594 4.35422 26.2724 4.60959 25.1855C4.64315 25.0406 4.4197 24.9784 4.38614 25.1241Z" fill="#F6F2FE"/>
<path id="Vector_14" d="M3.64614 28.8317C3.58394 28.821 3.52173 28.8578 3.50863 28.9217C3.48081 29.0559 3.45298 29.1902 3.42433 29.3252C3.41205 29.3841 3.45216 29.4521 3.51355 29.4627C3.57575 29.4725 3.63796 29.4357 3.65105 29.3727C3.67888 29.2376 3.70671 29.1034 3.73536 28.9692C3.74763 28.9094 3.70753 28.8415 3.64614 28.8317Z" fill="#F6F2FE"/>
<path id="Vector_15" d="M40.9364 35.6138C40.6491 34.4606 40.361 33.3073 40.0737 32.1549C40.0369 32.01 39.8159 32.0796 39.8528 32.2244C40.14 33.3769 40.4282 34.5301 40.7154 35.6834C40.7523 35.8282 40.9725 35.7587 40.9364 35.6138Z" fill="#F6F2FE"/>
<path id="Vector_16" d="M41.1901 36.5599C41.1525 36.4338 41.1148 36.3086 41.0772 36.1826C41.06 36.1245 40.9904 36.0852 40.9323 36.1064C40.8725 36.1285 40.8373 36.1899 40.8562 36.2521C40.8938 36.3782 40.9315 36.5034 40.9691 36.6295C40.9871 36.6876 41.0559 36.7269 41.114 36.7056C41.1737 36.6835 41.2089 36.6229 41.1901 36.5599Z" fill="#F6F2FE"/>
</g>
</svg>
