<svg width="27" height="44" viewBox="0 0 27 44" fill="none" xmlns="http://www.w3.org/2000/svg">
<g id="Group 627075">
<g id="Clip path group">
<mask id="mask0_266_206" style="mask-type:luminance" maskUnits="userSpaceOnUse" x="0" y="0" width="27" height="44">
<g id="c0ae77e44d">
<path id="Vector" d="M0.547607 0.952393H26.3309V43.0476H0.547607V0.952393Z" fill="white"/>
</g>
</mask>
<g mask="url(#mask0_266_206)">
<g id="Group">
<path id="Vector_2" d="M5.2654 1.79224L4.39801 1.84294C4.38568 1.84294 4.37335 1.84294 4.36101 1.84294C2.99484 1.7991 2.05619 2.76789 1.54781 4.7507L1.56152 4.65203L1.50945 38.5228C1.50945 38.5516 1.5067 38.5804 1.50122 38.6078C1.43134 38.9257 1.5807 39.6177 1.94794 40.6851C1.95342 40.7016 1.95753 40.718 1.96164 40.7358C2.08086 41.3333 2.9181 41.8252 4.47064 42.2089L4.37609 42.1965L21.7801 42.2472C23.9931 42.2472 25.2209 41.2785 25.4634 39.3395L25.4607 39.3875L25.5114 5.51669L25.5128 5.55094C25.4141 4.3725 25.3045 3.6942 25.1839 3.5147C25.1949 3.53114 25.2127 3.54621 25.2387 3.56266C25.1455 3.5051 25.0811 3.41055 25.0606 3.30367C24.94 2.70623 24.1041 2.21566 22.5502 1.83198L22.6461 1.84294L5.24074 1.79224C5.01875 1.79224 4.83924 1.61137 4.84061 1.39075C4.84061 1.16876 5.02149 0.989256 5.24348 0.990626L22.6489 1.04133C22.6804 1.04133 22.7119 1.04544 22.7434 1.05229C24.6276 1.51819 25.6621 2.21566 25.8485 3.14609L25.6704 2.8871C25.7389 2.93095 25.7992 2.99125 25.8512 3.06798C26.0486 3.36259 26.2034 4.16695 26.3144 5.4838C26.3158 5.49476 26.3158 5.50572 26.3158 5.51806L26.2651 39.3888C26.2651 39.4053 26.2637 39.4217 26.261 39.4382C25.9595 41.8458 24.4659 43.0489 21.7801 43.0489H21.7787L4.37335 42.9982C4.34183 42.9982 4.30894 42.9941 4.27743 42.9872C2.39465 42.5213 1.36008 41.8238 1.17372 40.8934L1.18743 40.9455C0.77223 39.7369 0.614647 38.901 0.714678 38.4379L0.706457 38.5228L0.757157 4.65066C0.757157 4.61778 0.761268 4.58352 0.76949 4.552C1.38475 2.154 2.5906 0.983775 4.38705 1.04133H4.35142L5.21881 0.990626C5.4408 0.978294 5.6299 1.14684 5.6436 1.36746C5.65594 1.58944 5.48739 1.77854 5.2654 1.79224Z" fill="#F6F2FE"/>
</g>
</g>
</g>
<path id="Vector_3" d="M3.50993 4.91113H23.5408C23.6518 4.91113 23.7422 5.00157 23.7422 5.11257V37.983C23.7422 38.094 23.6518 38.1831 23.5408 38.1831H3.50993C3.45649 38.1831 3.40442 38.1625 3.36742 38.1242C3.32905 38.0872 3.30713 38.0365 3.30713 37.983V5.11257C3.30713 5.05912 3.32905 5.00842 3.36742 4.97006C3.40442 4.93306 3.45649 4.91113 3.50993 4.91113ZM3.50993 5.314L3.71136 5.11257V37.983L3.50993 37.7816H23.5408L23.338 37.983V5.11257L23.5408 5.314H3.50993Z" fill="#F6F2FE"/>
<path id="Vector_4" d="M9.96426 3.67651H18.0065C18.0681 3.67651 18.1175 3.72721 18.1175 3.78888V4.28081C18.1175 4.3411 18.0681 4.3918 18.0065 4.3918H9.96426C9.93549 4.3918 9.90671 4.37947 9.88616 4.35892C9.86423 4.33836 9.85327 4.30959 9.85327 4.28081V3.78888C9.85327 3.75873 9.86423 3.72995 9.88616 3.7094C9.90671 3.68885 9.93549 3.67651 9.96426 3.67651ZM9.96426 3.89987L10.0766 3.78888V4.28081L9.96426 4.16845H18.0065L17.8941 4.28081V3.78888L18.0065 3.89987H9.96426Z" fill="#F6F2FE"/>
<path id="Vector_5" d="M14.6792 2.77478C14.6943 3.15983 14.4202 3.5024 14.0461 3.51611C13.6707 3.53118 13.372 3.20916 13.3583 2.82411C13.3432 2.43906 13.6159 2.09649 13.9913 2.08278C14.3668 2.06771 14.6655 2.38973 14.6792 2.77478ZM14.4559 2.783C14.4449 2.49935 14.2311 2.29655 13.9996 2.30614C13.7693 2.31436 13.5707 2.53224 13.5816 2.81589C13.5926 3.09954 13.8063 3.30234 14.0366 3.29275C14.2681 3.28453 14.4668 3.06665 14.4559 2.783Z" fill="#F6F2FE"/>
<path id="Vector_6" d="M17.5417 40.3427C17.5417 40.9292 15.7713 41.2595 13.9091 41.2595C12.0482 41.2595 10.2778 40.9292 10.2778 40.3427C10.2778 39.7576 12.0482 39.426 13.9091 39.426C15.7713 39.426 17.5417 39.7576 17.5417 40.3427ZM17.317 40.3427C17.317 40.0399 15.9357 39.6494 13.9091 39.6494C11.8824 39.6494 10.5012 40.0399 10.5012 40.3427C10.5012 40.647 11.8824 41.0361 13.9091 41.0361C15.9357 41.0361 17.317 40.647 17.317 40.3427Z" fill="#F6F2FE"/>
<path id="Vector_7" d="M8.99662 6.92554C8.96373 6.92554 8.93084 6.94061 8.90892 6.96802C8.77874 7.13108 8.68008 7.26948 8.61157 7.38321C7.94835 8.50137 7.57015 9.11389 7.4756 9.2194C7.47149 9.22488 7.46875 9.22899 7.46463 9.23447C7.18647 9.6757 6.62328 10.4664 5.7737 11.6078C5.7367 11.6571 5.74766 11.727 5.79699 11.764C5.81755 11.7791 5.84084 11.7859 5.86414 11.7859C5.8984 11.7859 5.93128 11.7709 5.95321 11.7407C6.80005 10.6034 7.3646 9.80999 7.64825 9.36328C7.75788 9.23447 8.14293 8.61236 8.80478 7.49832C8.86781 7.39144 8.96099 7.26126 9.08432 7.10642C9.12268 7.05845 9.11446 6.98857 9.0665 6.9502C9.04595 6.93376 9.02128 6.92554 8.99662 6.92554Z" fill="#F6F2FE"/>
<path id="Vector_8" d="M10.9769 7.43799C10.9467 7.43799 10.9166 7.44895 10.8947 7.47225C10.7645 7.61201 10.6521 7.75315 10.5589 7.89703L10.5576 7.89978C10.0862 8.68769 9.47093 9.66471 8.71316 10.8322L8.70905 10.839C7.00578 13.9208 5.89311 15.8447 5.3724 16.6121C5.33814 16.6628 5.35185 16.7326 5.40255 16.7669C5.42173 16.7792 5.44366 16.7861 5.46558 16.7861C5.50121 16.7861 5.53683 16.7683 5.55739 16.7368C6.08221 15.9653 7.19625 14.0373 8.90089 10.9541C9.66003 9.78529 10.2753 8.80691 10.748 8.01762C10.833 7.8847 10.9358 7.75452 11.0577 7.62572C11.1002 7.58187 11.0988 7.51061 11.0536 7.46813C11.0317 7.44758 11.0043 7.43799 10.9769 7.43799Z" fill="#F6F2FE"/>
<path id="Vector_9" d="M16.5346 28.2662C16.5456 28.2662 16.5579 28.269 16.5689 28.2731C16.5606 28.2704 16.551 28.2704 16.5415 28.2704C16.5168 28.2704 16.4921 28.2786 16.4729 28.2937C16.4921 28.2758 16.5127 28.2662 16.5346 28.2662ZM16.6333 28.3156C16.6593 28.3457 16.6634 28.3827 16.6442 28.4252C16.6607 28.3882 16.6552 28.3471 16.6319 28.3156H16.6333ZM18.4557 25.4448C18.4256 25.4448 18.3968 25.4572 18.3749 25.4805C18.2899 25.5695 18.1762 25.7148 18.0337 25.9162L18.031 25.9203L18.0296 25.9231C17.0608 27.4071 16.5387 28.1991 16.4633 28.3019C16.4579 28.306 16.4538 28.3115 16.4496 28.3169L14.0201 31.7564C13.9845 31.8071 13.9968 31.877 14.0475 31.9126C14.0667 31.9263 14.09 31.9331 14.1119 31.9331C14.1462 31.9331 14.1818 31.9167 14.2037 31.8852L16.6209 28.4636H16.6196C16.6237 28.4595 16.6278 28.454 16.6319 28.4485C16.6853 28.3827 17.2129 27.5811 18.2159 26.045L18.2187 26.0423C18.3543 25.8504 18.4599 25.7148 18.538 25.6326C18.5791 25.5887 18.5777 25.5174 18.5325 25.475C18.5106 25.4544 18.4832 25.4448 18.4557 25.4448Z" fill="#F6F2FE"/>
<path id="Vector_10" d="M19.9221 25.8848C19.8851 25.8848 19.8494 25.9026 19.8275 25.9368L13.8421 35.4261C13.8092 35.4795 13.8243 35.548 13.8763 35.5809C13.8955 35.5919 13.9161 35.5974 13.9366 35.5974C13.9736 35.5974 14.0093 35.5796 14.0312 35.5453L20.0166 26.0547C20.0495 26.0026 20.0344 25.9341 19.9823 25.9012C19.9632 25.8902 19.9426 25.8848 19.9221 25.8848Z" fill="#F6F2FE"/>
</g>
</svg>
