<svg width="17" height="11" viewBox="0 0 17 11" fill="none" xmlns="http://www.w3.org/2000/svg">
<path d="M8.50016 7.96636L14.7251 1.11881C15.0509 0.760375 15.5856 0.760439 15.9113 1.11875C16.2296 1.46886 16.2296 2.03115 15.9112 2.38122L9.09326 9.88118C8.93866 10.0513 8.72563 10.15 8.50016 10.15C8.2747 10.15 8.06173 10.0514 7.90708 9.88125L1.08871 2.38125L1.08871 2.38125C0.770432 2.03114 0.770429 1.46892 1.08871 1.11881L8.50016 7.96636ZM8.50016 7.96636L2.27492 1.11875C2.27492 1.11875 2.27492 1.11875 2.27492 1.11875C1.94919 0.760442 1.41451 0.760375 1.08871 1.1188L8.50016 7.96636Z" fill="#9B9FA6" stroke="#9B9FA6" stroke-width="0.3"/>
</svg>
