<svg width="188" height="184" viewBox="0 0 188 184" fill="none" xmlns="http://www.w3.org/2000/svg">
<g id="Jellypepper Illustrations">
<g id="rocket">
<path d="M48.082 138.589C49.6966 137.254 51.3111 135.888 52.8946 134.554C53.9192 133.685 54.5401 132.598 54.7264 131.233V131.202L54.7575 131.046L54.7264 130.891V130.86C54.478 128.843 53.2982 127.446 51.4042 126.949C50.9075 126.825 50.4107 126.763 49.9139 126.763C48.4857 126.763 47.1506 127.322 45.7845 128.47C40.2889 133.157 34.7002 137.875 29.3288 142.438C24.2679 146.721 19.0517 151.128 13.8977 155.505C10.886 158.081 7.90534 160.75 5.01783 163.327L4.86259 163.451C4.08638 164.134 3.34121 164.816 2.565 165.499C-0.260408 168.013 0.702094 170.248 1.50935 171.365C2.84444 173.166 4.36581 173.538 5.39041 173.538C6.22872 173.538 7.09808 173.29 7.93639 172.793C8.83679 172.266 9.64405 171.614 10.234 171.086C12.5626 169.038 14.9223 166.989 17.1578 165.003L17.1888 164.972C21.3183 161.34 25.5719 157.615 29.8256 153.984C35.7869 148.894 41.8413 143.803 47.7095 138.868L48.082 138.589Z" fill="url(#paint0_linear_173_1545)"/>
<path d="M15.9779 133.902H16.1642C17.4683 133.809 18.4929 133.405 19.3622 132.691C27.4348 125.894 34.0171 120.338 40.0715 115.186C41.9345 113.603 42.307 111.554 41.0651 109.723C40.0715 108.264 38.6433 107.457 37.0598 107.457C36.5631 107.457 36.0663 107.55 35.5385 107.705C34.6691 107.985 33.7377 108.512 32.8372 109.257C28.2421 113.106 23.6159 116.986 19.1449 120.773C17.0957 122.511 15.0154 124.249 12.9662 125.987C11.2896 127.384 10.7618 129.215 11.507 131.015C12.2211 132.785 13.8045 133.809 15.9779 133.902Z" fill="url(#paint1_linear_173_1545)"/>
<path d="M65.5623 139.737C65.3139 139.706 65.0345 139.675 64.7861 139.675C63.42 139.675 62.1159 140.203 60.8119 141.258C54.5712 146.286 49.355 150.508 44.0457 154.853C41.8413 156.653 41.9344 158.547 42.4312 159.788C42.959 161.123 44.1389 162.768 46.9643 162.892H47.0885C48.3615 162.861 49.5103 162.395 50.597 161.526C53.205 159.416 55.7821 157.305 58.3901 155.194L58.6075 155.008C61.7123 152.494 64.8172 149.98 67.922 147.435C69.5055 146.162 70.0644 144.424 69.4744 142.686C69.0087 141.537 68.0152 140.079 65.5623 139.737Z" fill="url(#paint2_linear_173_1545)"/>
<path d="M180.535 0.932861H180.504C177.088 0.932861 173.394 1.08805 168.83 1.39844C161.44 1.92609 154.858 3.29179 148.648 5.58864C143.37 7.54407 138.34 10.1513 133.496 12.6654C131.385 13.7518 129.212 14.9002 127.038 15.9555C126.045 16.4521 125.051 16.9177 124.058 17.3833C118.717 19.9284 113.191 22.5667 108.502 26.5707C98.9705 34.7028 90.8668 42.5866 83.7257 50.6876C83.5394 50.9049 83.3531 51.1222 83.1668 51.3395C81.397 53.388 79.8757 55.1262 77.6091 55.1262C77.0192 55.1262 76.3672 55.002 75.6841 54.7847C75.4978 54.7227 75.2805 54.6916 75.0321 54.6916C74.8148 54.6916 74.6285 54.7227 74.4732 54.7537C74.4111 54.7537 74.318 54.7847 74.2869 54.7847C73.5107 54.8158 72.7656 54.8468 71.9894 54.9089C64.724 55.2503 57.2103 55.6228 49.8829 57.0816C41.624 58.7577 32.1852 61.0545 24.33 67.4485C19.0828 71.7007 14.1461 76.5427 9.20937 82.2228C6.32186 85.5439 3.06177 89.2996 1.22991 94.0795C0.0500727 97.1523 0.267412 99.6354 1.88193 101.684C3.24806 103.453 5.20412 104.384 7.47065 104.384C8.12267 104.384 8.80574 104.291 9.45776 104.136C17.3441 102.305 25.4477 100.815 33.2719 99.3871C35.4453 98.9836 37.7119 98.5801 39.9163 98.1766C40.5062 98.0525 40.972 98.0214 41.3756 98.0214C42.2449 98.0214 43.0522 98.2697 44.0457 99.4492C49.6966 106.185 56.403 112.206 62.3333 117.545C67.5184 122.2 72.1446 127.601 76.6156 132.816C78.82 135.392 81.1176 138.061 83.4462 140.606C83.8188 141.01 84.0051 141.475 83.7878 142.5C83.1979 144.952 82.639 147.435 82.0801 149.825C80.9624 154.698 79.7825 159.757 78.4785 164.661C78.2301 165.623 77.9196 166.617 77.6091 167.579C76.8019 170.248 75.9636 172.98 75.8394 175.928C75.7462 177.946 76.3982 179.808 77.6712 181.112C78.8821 182.384 80.5898 183.067 82.4527 183.067C82.8563 183.067 83.2599 183.036 83.6636 182.974C85.5575 182.695 87.3894 182.043 89.0971 181.081C96.8902 176.766 103.379 170.838 109.9 164.63C115.612 159.198 119.835 152.711 122.35 145.386C126.262 134.119 128.373 121.859 128.963 106.805C128.963 106.588 128.963 106.371 128.963 106.154C128.932 105.378 128.963 105.16 129.367 104.85C135.266 100.411 140.575 95.5694 145.015 91.4723C145.916 90.6343 146.847 89.7652 147.748 88.9582C153.647 83.5575 159.763 77.9395 163.955 70.6454C168.892 62.0167 173.828 53.4811 178.02 46.2802C184.788 34.6097 186.372 21.7908 187.428 9.65469V9.59262L187.459 9.22015C187.459 8.97184 187.49 8.6925 187.49 8.44419C187.645 5.93007 187.148 4.09879 185.968 2.82621C184.788 1.55363 183.019 0.932861 180.535 0.932861ZM70.3438 64.8412C67.6426 67.2312 65.0966 69.497 62.6748 71.918C59.7873 74.8046 56.6204 77.505 53.5776 80.1122C50.3175 82.9057 46.9643 85.7612 43.8905 88.8961C43.0832 89.7341 41.9965 89.8893 40.8167 90.0756L40.7236 90.1066C30.3534 91.8137 19.9211 93.7691 9.64405 95.9729C11.0102 92.9001 13.2146 90.3239 15.357 87.8408C20.6042 81.7883 25.3546 77.1014 30.3223 73.1285C36.2836 68.3796 43.3006 66.3311 51.9942 64.686C58.7317 63.4445 65.5002 62.7927 72.7345 62.6996C71.9273 63.4445 71.12 64.1584 70.3438 64.8412ZM132.658 22.1322C134.304 21.3252 135.949 20.4871 137.533 19.6801C147.251 14.714 157.279 9.59262 168.767 9.34431C170.755 9.31327 172.773 9.12704 174.729 8.94081C176.033 8.81665 177.399 8.6925 178.734 8.63042C178.827 8.63042 178.889 8.63042 178.982 8.63042C179.417 8.63042 179.51 8.72354 179.51 8.72354C179.541 8.75457 179.634 8.90977 179.603 9.59262C179.138 16.8867 178.268 22.784 176.871 28.0916C175.194 34.5476 172.742 40.1035 169.388 45.1317C168.364 46.6526 167.401 48.3598 166.221 50.6256C166.066 50.936 165.973 51.0601 165.911 51.1222C165.849 51.0911 165.725 51.0291 165.445 50.7808C161.502 47.3044 157.497 43.7971 153.585 40.4139L150.759 37.9308C146.444 34.1751 142.128 30.4195 137.75 26.5707L132.658 22.1322ZM97.8217 134.181C103.317 128.967 108.782 123.535 114.091 118.259L114.153 118.196C116.389 115.962 118.717 113.665 121.015 111.399C119.742 125.025 118.065 137.285 112.321 148.552C111.204 150.725 109.31 153.829 104.435 158.516C99.1878 163.544 93.4438 168.727 86.8926 172.731C86.0233 173.259 85.216 173.755 84.2225 174.035C86.7995 164.568 89.2523 155.629 91.0221 146.348C91.8604 141.631 94.0338 137.782 97.8217 134.181ZM112.011 109.444C105.18 115.931 98.1011 122.666 91.5809 129.712V129.743C89.8422 131.636 88.6934 132.878 88.0104 132.878C87.3273 132.878 86.2095 131.481 84.7813 129.681C78.6958 122.014 71.5547 115.217 64.6309 108.637C62.2401 106.371 59.7873 104.043 57.3966 101.715C57.055 101.405 56.7446 101.063 56.403 100.753L56.3409 100.691C54.7264 99.1078 53.0498 97.4938 51.5284 95.7867C50.8764 95.0728 50.1623 94.2658 50.1623 93.8933C50.1933 93.5519 51.0006 92.807 51.7147 92.1551C53.2361 90.7894 54.8196 89.4238 56.3409 88.1201C58.3901 86.3509 60.5325 84.5197 62.5196 82.6263C65.5934 79.6777 68.7914 76.729 71.8652 73.8734C78.8511 67.4174 86.0543 60.7441 92.5745 53.5122C100.181 45.1007 108.813 35.6029 119.462 28.9607C121.977 27.4087 123.623 26.3534 124.803 26.3534C125.983 26.3534 127.131 27.3156 129.864 29.7056L130.112 29.9229C137.098 36.0685 144.239 42.2452 151.132 48.2046L151.318 48.3598C154.485 51.0911 157.745 53.9467 160.974 56.7091C161.347 57.0195 161.688 57.3609 162.061 57.7024C162.092 57.7334 162.154 57.7955 162.185 57.8265C162.185 57.8265 162.185 57.8575 162.154 57.8575C161.999 58.1679 161.875 58.4473 161.75 58.6956C156.907 67.5105 150.915 75.0839 143.401 81.8814C139.613 85.3267 135.577 88.6788 131.696 91.9068C126.697 96.066 121.574 100.349 116.792 104.912C115.178 106.433 113.563 107.985 112.011 109.444Z" fill="url(#paint3_linear_173_1545)"/>
<path d="M136.011 59.9992C134.738 56.4608 132.161 53.5122 128.156 51.0291C124.648 48.8564 120.704 47.77 116.358 47.77C115.923 47.77 115.519 47.77 115.085 47.8011C114.836 47.8011 114.557 47.8011 114.308 47.8011C112.57 47.8011 110.769 47.8321 108.937 48.7012C104.093 50.998 100.275 54.3502 97.5733 58.6335C94.4064 63.6928 93.7233 68.4107 95.5241 72.725C97.1386 76.5738 99.8709 80.0501 103.193 82.4711C106.826 85.1404 111.048 86.5372 115.395 86.5372C117.196 86.5372 119.028 86.2889 120.86 85.8233C124.958 84.7369 128.156 83.216 130.609 81.1365C133.434 78.7465 135.328 75.5185 136.229 71.6076C137.222 67.045 137.16 63.2272 136.011 59.9992ZM127.721 66.1448C127.783 71.2972 125.827 74.7115 121.698 76.6048C119.307 77.6912 117.196 78.2188 115.209 78.2188C112.849 78.2188 110.738 77.4739 108.782 75.922C105.366 73.2527 103.224 70.6144 103.876 66.5173C104.435 62.8858 109.62 57.454 113.284 56.647C114.557 56.3677 115.768 56.2435 116.885 56.2435C119.494 56.2435 121.822 56.9574 123.996 58.4473C126.883 60.4027 128.063 62.8237 127.721 66.0207V66.1448Z" fill="url(#paint4_linear_173_1545)"/>
</g>
</g>
<defs>
<linearGradient id="paint0_linear_173_1545" x1="188.117" y1="93.9488" x2="-9.26409" y2="72.1158" gradientUnits="userSpaceOnUse">
<stop offset="0.105548" stop-color="#A87EE9"/>
<stop offset="0.457797" stop-color="#4E46B4"/>
<stop offset="0.901936" stop-color="#3448F0"/>
</linearGradient>
<linearGradient id="paint1_linear_173_1545" x1="188.117" y1="93.9488" x2="-9.26409" y2="72.1158" gradientUnits="userSpaceOnUse">
<stop offset="0.105548" stop-color="#A87EE9"/>
<stop offset="0.457797" stop-color="#4E46B4"/>
<stop offset="0.901936" stop-color="#3448F0"/>
</linearGradient>
<linearGradient id="paint2_linear_173_1545" x1="188.117" y1="93.9488" x2="-9.26409" y2="72.1158" gradientUnits="userSpaceOnUse">
<stop offset="0.105548" stop-color="#A87EE9"/>
<stop offset="0.457797" stop-color="#4E46B4"/>
<stop offset="0.901936" stop-color="#3448F0"/>
</linearGradient>
<linearGradient id="paint3_linear_173_1545" x1="188.117" y1="93.9488" x2="-9.26409" y2="72.1158" gradientUnits="userSpaceOnUse">
<stop offset="0.105548" stop-color="#A87EE9"/>
<stop offset="0.457797" stop-color="#4E46B4"/>
<stop offset="0.901936" stop-color="#3448F0"/>
</linearGradient>
<linearGradient id="paint4_linear_173_1545" x1="188.117" y1="93.9488" x2="-9.26409" y2="72.1158" gradientUnits="userSpaceOnUse">
<stop offset="0.105548" stop-color="#A87EE9"/>
<stop offset="0.457797" stop-color="#4E46B4"/>
<stop offset="0.901936" stop-color="#3448F0"/>
</linearGradient>
</defs>
</svg>
