<svg width="37" height="37" viewBox="0 0 37 37" fill="none" xmlns="http://www.w3.org/2000/svg">
<path d="M20.8625 23.9102C21.2774 23.9102 21.6374 23.7576 21.9424 23.4526C22.2475 23.1475 22.4 22.7875 22.4 22.3727C22.4 21.9578 22.2475 21.5978 21.9424 21.2927C21.6374 20.9877 21.2774 20.8352 20.8625 20.8352C20.4476 20.8352 20.0877 20.9877 19.7826 21.2927C19.4775 21.5978 19.325 21.9578 19.325 22.3727C19.325 22.7875 19.4775 23.1475 19.7826 23.4526C20.0877 23.7576 20.4476 23.9102 20.8625 23.9102ZM19.925 19.1852H21.6875C21.7375 18.4602 21.8438 17.9227 22.0063 17.5727C22.1688 17.2227 22.575 16.7352 23.225 16.1102C23.9 15.4602 24.3688 14.8927 24.6313 14.4078C24.8938 13.923 25.025 13.3529 25.025 12.6977C25.025 11.5506 24.6313 10.6138 23.8438 9.88737C23.0563 9.16089 22.025 8.79766 20.75 8.79766C19.8 8.79766 18.95 9.05391 18.2 9.56641C17.45 10.0789 16.9 10.7977 16.55 11.7227L18.2375 12.4352C18.5125 11.8102 18.8563 11.3352 19.2688 11.0102C19.6813 10.6852 20.175 10.5227 20.75 10.5227C21.4945 10.5227 22.0993 10.7352 22.5646 11.1602C23.0299 11.5852 23.2625 12.1227 23.2625 12.7727C23.2625 13.2727 23.15 13.7102 22.925 14.0852C22.7 14.4602 22.3 14.8602 21.725 15.2852C20.925 16.0102 20.425 16.5914 20.225 17.0289C20.025 17.4664 19.925 18.1852 19.925 19.1852ZM10.25 29.1602C9.65 29.1602 9.125 28.9352 8.675 28.4852C8.225 28.0352 8 27.5102 8 26.9102V5.91016C8 5.31016 8.225 4.78516 8.675 4.33516C9.125 3.88516 9.65 3.66016 10.25 3.66016H31.25C31.85 3.66016 32.375 3.88516 32.825 4.33516C33.275 4.78516 33.5 5.31016 33.5 5.91016V26.9102C33.5 27.5102 33.275 28.0352 32.825 28.4852C32.375 28.9352 31.85 29.1602 31.25 29.1602H10.25ZM10.25 26.9102H31.25V5.91016H10.25V26.9102ZM5.75 33.6602C5.15 33.6602 4.625 33.4352 4.175 32.9852C3.725 32.5352 3.5 32.0102 3.5 31.4102V8.16016H5.75V31.4102H29V33.6602H5.75Z" fill="white"/>
</svg>
