<svg width="12" height="8" viewBox="0 0 12 8" fill="none" xmlns="http://www.w3.org/2000/svg">
<path id="Vector" d="M2.76473 5.85737C3.24493 5.85737 3.7119 5.90941 4.16565 6.01349C4.6194 6.11757 5.0691 6.28699 5.51473 6.52175V1.43213C5.11774 1.16478 4.68021 0.964265 4.20213 0.830586C3.72406 0.696915 3.24493 0.63008 2.76473 0.63008C2.43473 0.63008 2.14581 0.648699 1.89795 0.685936C1.6501 0.723181 1.37493 0.792346 1.07243 0.893431C0.987808 0.920034 0.927871 0.958274 0.892616 1.00815C0.857361 1.05804 0.839734 1.11291 0.839734 1.17276V5.84939C0.839734 5.9425 0.874989 6.01066 0.945499 6.05389C1.01602 6.09712 1.09358 6.10211 1.17819 6.06886C1.37915 6.00502 1.61132 5.95381 1.87468 5.91523C2.13805 5.87665 2.43473 5.85737 2.76473 5.85737ZM6.06473 6.52175C6.51037 6.28699 6.96006 6.11757 7.41382 6.01349C7.86757 5.90941 8.33454 5.85737 8.81473 5.85737C9.14473 5.85737 9.44142 5.87665 9.70479 5.91523C9.96815 5.95381 10.2003 6.00502 10.4013 6.06886C10.4859 6.10211 10.5634 6.09712 10.634 6.05389C10.7045 6.01066 10.7397 5.9425 10.7397 5.84939V1.17276C10.7397 1.11291 10.7221 1.0597 10.6869 1.01314C10.6516 0.966587 10.5917 0.926683 10.507 0.893431C10.2045 0.792346 9.92937 0.723181 9.68152 0.685936C9.43366 0.648699 9.14473 0.63008 8.81473 0.63008C8.33454 0.63008 7.85541 0.696915 7.37734 0.830586C6.89926 0.964265 6.46172 1.16478 6.06473 1.43213V6.52175ZM5.78973 7.11133C5.7037 7.11133 5.62456 7.10119 5.55228 7.0809C5.48001 7.06062 5.41108 7.03452 5.3455 7.00259C4.94569 6.79709 4.52932 6.6413 4.09637 6.53523C3.66342 6.42916 3.21954 6.37612 2.76473 6.37612C2.47845 6.37612 2.19728 6.39873 1.92123 6.44396C1.64516 6.48917 1.37633 6.56166 1.11473 6.66143C0.915185 6.73657 0.727795 6.71396 0.552565 6.59359C0.377344 6.47321 0.289734 6.30695 0.289734 6.09481V1.08098C0.289734 0.95262 0.325516 0.833574 0.39708 0.723843C0.468653 0.614112 0.56896 0.537633 0.697999 0.494404C1.02095 0.360059 1.35694 0.262627 1.70598 0.202108C2.05502 0.141588 2.40794 0.111328 2.76473 0.111328C3.30345 0.111328 3.82895 0.184483 4.34123 0.330793C4.8535 0.477104 5.33633 0.689921 5.78973 0.969245C6.24314 0.689921 6.72597 0.477104 7.23824 0.330793C7.75052 0.184483 8.27602 0.111328 8.81473 0.111328C9.17153 0.111328 9.52444 0.141588 9.87348 0.202108C10.2225 0.262627 10.5585 0.360059 10.8815 0.494404C11.0105 0.537633 11.1108 0.614112 11.1824 0.723843C11.254 0.833574 11.2897 0.95262 11.2897 1.08098V6.09481C11.2897 6.30695 11.1951 6.46989 11.0057 6.58361C10.8164 6.69734 10.6149 6.71662 10.4013 6.64147C10.1467 6.54836 9.88671 6.48086 9.62123 6.43896C9.35574 6.39707 9.08691 6.37612 8.81473 6.37612C8.35993 6.37612 7.91605 6.42916 7.4831 6.53523C7.05015 6.6413 6.63377 6.79709 6.23397 7.00259C6.16839 7.03452 6.09946 7.06062 6.02718 7.0809C5.95491 7.10119 5.87576 7.11133 5.78973 7.11133ZM6.82628 2.17931C6.82628 2.1414 6.8402 2.10299 6.86805 2.06408C6.89591 2.02518 6.92887 1.99609 6.96694 1.97681C7.24688 1.85709 7.54268 1.76564 7.85435 1.70247C8.16602 1.63929 8.48615 1.6077 8.81473 1.6077C8.99102 1.6077 9.15796 1.61684 9.31555 1.63513C9.47314 1.65342 9.6355 1.67986 9.80262 1.71444C9.84986 1.72508 9.89094 1.74836 9.92584 1.78426C9.96074 1.82018 9.97819 1.86474 9.97819 1.91794C9.97819 2.00506 9.95069 2.06825 9.89569 2.10749C9.84069 2.14672 9.767 2.1557 9.67463 2.13442C9.53925 2.10849 9.40052 2.0907 9.25843 2.08105C9.11635 2.07141 8.96845 2.06659 8.81473 2.06659C8.51999 2.06659 8.23159 2.09319 7.94954 2.14639C7.66749 2.1996 7.3999 2.27408 7.14675 2.36984C7.05227 2.40377 6.97524 2.40277 6.91565 2.36686C6.85607 2.33095 6.82628 2.26843 6.82628 2.17931ZM6.82628 4.99247C6.82628 4.95456 6.8402 4.91449 6.86805 4.87227C6.89591 4.83003 6.92887 4.79927 6.96694 4.77998C7.23277 4.66028 7.52858 4.57049 7.85435 4.51064C8.18012 4.45079 8.50024 4.42086 8.81473 4.42086C8.99102 4.42086 9.15796 4.43001 9.31555 4.4483C9.47314 4.46659 9.6355 4.49302 9.80262 4.5276C9.84986 4.53825 9.89094 4.56152 9.92584 4.59744C9.96074 4.63334 9.97819 4.6779 9.97819 4.7311C9.97819 4.81823 9.95069 4.88141 9.89569 4.92065C9.84069 4.95989 9.767 4.96886 9.67463 4.94759C9.53925 4.92165 9.40052 4.90386 9.25843 4.89421C9.11635 4.88457 8.96845 4.87975 8.81473 4.87975C8.52704 4.87975 8.24393 4.90752 7.96541 4.96305C7.68688 5.01858 7.42105 5.09755 7.16791 5.19997C7.07342 5.24054 6.99286 5.24004 6.92623 5.19848C6.85959 5.15691 6.82628 5.08824 6.82628 4.99247ZM6.82628 3.59587C6.82628 3.55796 6.8402 3.51955 6.86805 3.48064C6.89591 3.44174 6.92887 3.41264 6.96694 3.39335C7.24688 3.27365 7.54268 3.18221 7.85435 3.11903C8.16602 3.05585 8.48615 3.02426 8.81473 3.02426C8.99102 3.02426 9.15796 3.0334 9.31555 3.05169C9.47314 3.06998 9.6355 3.09642 9.80262 3.131C9.84986 3.14164 9.89094 3.16491 9.92584 3.20082C9.96074 3.23674 9.97819 3.2813 9.97819 3.3345C9.97819 3.42163 9.95069 3.4848 9.89569 3.52404C9.84069 3.56328 9.767 3.57226 9.67463 3.55097C9.53925 3.52504 9.40052 3.50725 9.25843 3.49761C9.11635 3.48797 8.96845 3.48315 8.81473 3.48315C8.51999 3.48315 8.23159 3.50975 7.94954 3.56294C7.66749 3.61615 7.3999 3.69063 7.14675 3.7864C7.05227 3.82032 6.97524 3.81932 6.91565 3.78341C6.85607 3.7475 6.82628 3.68499 6.82628 3.59587Z" fill="#A87EE9"/>
</svg>
