<svg width="11" height="11" viewBox="0 0 11 11" fill="none" xmlns="http://www.w3.org/2000/svg">
<path id="Vector" d="M6.41904 9.43519L4.70887 10.4366C4.58743 10.5077 4.46055 10.5259 4.32822 10.4914C4.1959 10.4568 4.09418 10.3788 4.02307 10.2573L3.02169 8.54715C3.22569 8.33089 3.35162 8.07416 3.39949 7.77694C3.44736 7.47971 3.39483 7.20051 3.24189 6.93932C3.08895 6.67814 2.87117 6.4957 2.58854 6.39199C2.30592 6.2883 2.02039 6.27249 1.73197 6.34457L0.730584 4.63441C0.659475 4.51297 0.641215 4.38609 0.675804 4.25376C0.710392 4.12144 0.788407 4.01972 0.909847 3.94861L2.63997 2.93554C2.57278 2.64276 2.59344 2.36519 2.70194 2.10284C2.81044 1.84048 2.99112 1.63527 3.24398 1.48721C3.49685 1.33914 3.76423 1.28199 4.04612 1.31576C4.32801 1.34952 4.58018 1.46733 4.80263 1.66919L6.53275 0.65612C6.65419 0.585011 6.78107 0.566751 6.9134 0.60134C7.04572 0.635929 7.14744 0.713943 7.21855 0.835383L8.23162 2.56551C8.5244 2.49832 8.80197 2.51898 9.06432 2.62748C9.32668 2.73597 9.53189 2.91665 9.67995 3.16952C9.82802 3.42238 9.88517 3.68976 9.8514 3.97165C9.81764 4.25354 9.69983 4.50571 9.49797 4.72816L10.511 6.45829C10.5821 6.57973 10.6004 6.70661 10.5658 6.83894C10.5312 6.97126 10.4532 7.07298 10.3318 7.14409L8.62161 8.14547C8.39137 7.9303 8.12892 7.80287 7.83426 7.76318C7.53959 7.7235 7.2661 7.77753 7.01379 7.92527C6.76148 8.07301 6.58053 8.28508 6.47094 8.56147C6.36136 8.83787 6.34406 9.1291 6.41904 9.43519ZM4.4556 10.004L5.88212 9.16875C5.83703 8.80942 5.90076 8.48206 6.07332 8.18667C6.24587 7.89127 6.47494 7.65996 6.76052 7.49274C7.0461 7.32552 7.35991 7.23894 7.70197 7.23301C8.04401 7.22708 8.36069 7.33169 8.65199 7.54685L10.0785 6.71156L8.84139 4.5988L9.04102 4.48191C9.22893 4.3272 9.33336 4.15138 9.35432 3.95443C9.37527 3.75749 9.33964 3.58027 9.24742 3.42279C9.15521 3.2653 9.0181 3.14751 8.83609 3.06941C8.65409 2.99131 8.44965 2.99634 8.22278 3.08451L8.02314 3.2014L6.78602 1.08865L4.67327 2.32577L4.55637 2.12614C4.40166 1.93823 4.22584 1.8338 4.0289 1.81284C3.83195 1.79189 3.65474 1.82752 3.49725 1.91974C3.33977 2.01195 3.22197 2.14906 3.14387 2.33107C3.06577 2.51307 3.0708 2.71751 3.15897 2.94438L3.27587 3.14402L1.16312 4.38114L1.99306 5.79851C2.33502 5.76954 2.65739 5.8362 2.96017 5.99847C3.26295 6.16074 3.50103 6.38994 3.67442 6.68606C3.84684 6.98051 3.92972 7.29946 3.92308 7.64292C3.91643 7.98638 3.81729 8.30096 3.62566 8.58667L4.4556 10.004Z" fill="#A87EE9"/>
</svg>
