<svg width="7" height="11" viewBox="0 0 7 11" fill="none" xmlns="http://www.w3.org/2000/svg">
<path id="Vector" d="M3.78973 9.4509L2.91223 10.055C2.80724 10.1276 2.70432 10.13 2.60348 10.0623C2.50264 9.99453 2.47098 9.90377 2.50848 9.78999L2.85472 8.8064L1.99347 8.26072C1.88847 8.19784 1.85681 8.11138 1.89847 8.00134C1.94014 7.89131 2.02431 7.8363 2.15098 7.8363H3.18473L3.66474 6.4485L1.45722 5.28975C1.24556 5.18271 1.08139 5.03599 0.96473 4.8496C0.848066 4.66322 0.789734 4.46187 0.789734 4.24554V1.05449C0.789734 0.793247 0.892022 0.570741 1.0966 0.38697C1.30119 0.203208 1.5489 0.111328 1.83973 0.111328H5.73974C6.03057 0.111328 6.27828 0.203208 6.48287 0.38697C6.68745 0.570741 6.78973 0.793247 6.78973 1.05449V4.24554C6.78973 4.45437 6.72724 4.64825 6.60224 4.82715C6.47725 5.00606 6.30891 5.15277 6.09724 5.2673L3.91473 6.4485L4.39474 7.8363H5.42848C5.55516 7.8363 5.63933 7.89131 5.68099 8.00134C5.72266 8.11138 5.69099 8.19784 5.586 8.26072L4.72474 8.8064L5.07098 9.78999C5.10849 9.90377 5.07682 9.99453 4.97599 10.0623C4.87515 10.13 4.77223 10.1276 4.66724 10.055L3.78973 9.4509ZM1.43974 1.05449V4.24554C1.43974 4.35781 1.47098 4.46073 1.53348 4.5543C1.59598 4.64787 1.68139 4.7246 1.78973 4.78449L3.46473 5.66476V0.695192H1.83973C1.72307 0.695192 1.62723 0.728876 1.55223 0.796244C1.47724 0.863612 1.43974 0.949693 1.43974 1.05449ZM5.73974 0.695192H4.11473V5.66476L5.78974 4.78449C5.89807 4.7246 5.98349 4.64787 6.04599 4.5543C6.10848 4.46073 6.13973 4.35781 6.13973 4.24554V1.05449C6.13973 0.949693 6.10223 0.863612 6.02723 0.796244C5.95223 0.728876 5.8564 0.695192 5.73974 0.695192Z" fill="#A87EE9"/>
</svg>
