<svg width="60" height="24" viewBox="0 0 60 24" fill="none" xmlns="http://www.w3.org/2000/svg">
<path d="M59.0142 1.92042V1.90017M59.0142 1.92042C59.016 1.96335 59.016 2.00629 59.0142 2.05003V1.90017M59.0142 1.92042H59.1142V1.9183M59.0142 1.92042L59.1141 1.91626C59.1141 1.91694 59.1142 1.91762 59.1142 1.9183M59.0142 1.90017C59.0124 1.84752 59.0052 1.79486 58.9936 1.74383M59.0142 1.90017L58.9936 1.74383M59.1142 1.9183L59.1143 1.90017L59.1141 1.89677C59.1123 1.84346 59.1056 1.79048 59.0949 1.73907M59.1142 1.9183C59.116 1.96335 59.116 2.00837 59.1141 2.05412L59.1137 2.06347L59.1133 2.06341L58.1357 9.30528L58.1357 9.30535C58.0636 9.83677 57.5699 10.2226 56.9991 10.2246M59.0949 1.73907L56.9991 10.1246V10.2246M59.0949 1.73907C59.0952 1.72714 59.0937 1.71463 59.0897 1.70201M59.0949 1.73907L56.9982 10.2246H56.8711H56.8596L56.8597 10.224C56.24 10.1531 55.7813 9.63824 55.8588 9.05434L55.8703 8.9675H55.8714L56.4181 4.91807L37.5735 22.7239L37.5731 22.7243C37.3717 22.9123 37.1035 23.0241 36.8201 23.0414L36.819 23.0441L36.7525 23.0439C36.445 23.043 36.1499 22.9291 35.9352 22.7245C35.9349 22.7243 35.9347 22.724 35.9344 22.7238L19.9287 8.04238L2.90994 22.7443C2.69745 22.964 2.39588 23.0917 2.07818 23.0996C1.75892 23.1075 1.44827 22.9936 1.22386 22.7817C0.999162 22.5703 0.880554 22.2806 0.902606 21.9821L0.902608 21.9821C0.924517 21.6864 1.08204 21.4144 1.33229 21.2322L19.1635 5.82785L19.2289 5.90352L19.1635 5.82784C19.5616 5.48403 20.1605 5.45048 20.5979 5.72289V5.69555L20.7655 5.84927L36.7392 20.5001L54.7366 3.50098L50.2259 4.19425L50.225 4.19438C49.6103 4.28344 49.017 3.91068 48.904 3.33709L48.9038 3.33587C48.7971 2.75645 49.2287 2.22242 49.8446 2.12779L49.8447 2.12777L57.7953 0.914414L57.811 1.01316M59.0949 1.73907C59.0946 1.75329 59.0918 1.76667 59.0874 1.77839L58.9936 1.74383M59.0949 1.73907C59.0937 1.73323 59.0924 1.7274 59.0911 1.7216L58.9936 1.74383M56.9991 10.2246L56.9985 10.2246C56.9987 10.2246 56.9989 10.2246 56.9991 10.2246ZM59.0897 1.70201C59.0758 1.64423 59.0556 1.58804 59.0312 1.53491M59.0897 1.70201C59.0901 1.70375 59.0906 1.70549 59.091 1.70723L58.9936 1.73006M59.0897 1.70201C59.0884 1.69789 59.0869 1.69376 59.0851 1.68963L58.9936 1.73006M59.0312 1.53491C59.026 1.52155 59.0202 1.50995 59.0164 1.50242L59.0158 1.50128L59.0153 1.50026C58.9922 1.45549 58.9665 1.41204 58.9387 1.37036M59.0312 1.53491C59.0318 1.53631 59.0323 1.53772 59.0328 1.53915L58.939 1.57372M59.0312 1.53491C59.0307 1.53383 59.0302 1.53275 59.0297 1.53167L58.939 1.57372M58.9387 1.37036V1.35455L58.9192 1.32809C58.8768 1.27055 58.8277 1.21883 58.773 1.17286M58.9387 1.37036V1.38741V1.40118H58.8387M58.9387 1.37036C58.9328 1.36147 58.9268 1.35267 58.9207 1.34394L58.8585 1.38741L58.8387 1.40118M58.773 1.17286C58.7229 1.12933 58.668 1.09075 58.6084 1.05802M58.773 1.17286C58.7732 1.17305 58.7734 1.17325 58.7737 1.17345L58.708 1.24889L58.7723 1.17228C58.7725 1.17247 58.7728 1.17266 58.773 1.17286ZM58.6084 1.05802L58.5912 1.04557L58.5918 1.0448L58.5796 1.03833C58.5256 1.00955 58.4698 0.984281 58.4121 0.962525L58.4121 0.962344L58.4062 0.960517L58.3645 0.947741L58.332 1.04233M58.6084 1.05802L58.6136 1.06177L58.5549 1.14277L58.6025 1.05478C58.6045 1.05585 58.6064 1.05693 58.6084 1.05802ZM58.332 1.04233L58.3614 0.946746L58.363 0.947211C58.3065 0.927915 58.2478 0.912904 58.1879 0.903128L58.1799 0.901823H58.1718H58.1393M58.332 1.04233C58.2801 1.0245 58.2264 1.01073 58.1718 1.00182H58.1369C58.0876 0.999392 58.0375 0.999392 57.9883 1.00182M58.332 1.04233L58.3768 1.0561C58.4305 1.07635 58.4824 1.09984 58.5326 1.12657L49.8598 2.22663L57.811 1.01316M58.1393 0.901823C58.0884 0.899392 58.0367 0.899392 57.9858 0.901823M58.1393 0.901823H58.1369V1.00178L58.1418 0.901944C58.141 0.901903 58.1401 0.901863 58.1393 0.901823ZM57.9858 0.901823H57.9507C57.8986 0.901823 57.846 0.906334 57.7956 0.914362L57.7959 0.914308L57.811 1.01316M57.9858 0.901823H57.9883V1.00182M57.9858 0.901823C57.985 0.901863 57.9842 0.901903 57.9833 0.901944L57.9883 1.00182M57.811 1.01316C57.8567 1.00587 57.9041 1.00182 57.9507 1.00182H57.9883M58.8387 1.40118C58.871 1.44735 58.9005 1.49595 58.9265 1.54618M58.8387 1.40118V1.38741L58.9265 1.54618M58.9265 1.54618C58.9309 1.55509 58.9354 1.564 58.939 1.57372M58.9265 1.54618L58.9936 1.73006M58.939 1.57372C58.9623 1.62394 58.9811 1.67659 58.9936 1.73006M58.9936 1.73006C58.9954 1.73411 58.9954 1.73897 58.9936 1.74383M58.9936 1.73006V1.74383" fill="black" stroke="black" stroke-width="0.2"/>
</svg>
