<svg width="17" height="11" viewBox="0 0 17 11" fill="none" xmlns="http://www.w3.org/2000/svg">
<path d="M1.08783 2.40314L1.08783 2.40313C0.770726 2.04809 0.770723 1.47876 1.08782 1.12371L1.08783 2.40314ZM1.08783 2.40314L7.9062 10.0371C8.06054 10.2099 8.27374 10.3107 8.50016 10.3107C8.72658 10.3107 8.93983 10.2098 9.09413 10.037C9.09413 10.037 9.09414 10.037 9.09414 10.037L15.9121 2.4031L1.08783 2.40314ZM14.7242 1.12371C15.0501 0.75874 15.5863 0.758805 15.9122 1.12365C16.2293 1.47869 16.2293 2.04808 15.9121 2.40308L14.7242 1.12371ZM14.7242 1.12371L8.50016 8.09255L2.27581 1.12365C2.27581 1.12365 2.27581 1.12365 2.27581 1.12365C1.94995 0.758808 1.41375 0.75874 1.08783 1.1237L14.7242 1.12371Z" fill="#9B9FA6" stroke="#9B9FA6" stroke-width="0.3"/>
</svg>
