<svg width="20" height="17" viewBox="0 0 20 17" fill="none" xmlns="http://www.w3.org/2000/svg">
<path d="M12.1899 15.9742L12.1898 15.9743C11.7894 16.3552 11.1565 16.3393 10.776 15.9397M12.1899 15.9742L10.957 15.7673M12.1899 15.9742L18.7329 9.74171L18.733 9.74177L18.7374 9.73735C19.0672 9.40714 19.25 8.96716 19.25 8.49982C19.25 8.03131 19.0661 7.59127 18.724 7.24968L18.7241 7.24963L18.7198 7.24554L12.1896 1.02588C12.1896 1.02585 12.1896 1.02582 12.1895 1.02579C11.9961 0.841372 11.7476 0.749817 11.5 0.749817C11.2365 0.749817 10.9721 0.853791 10.7755 1.06035C10.3946 1.46037 10.4102 2.09293 10.8101 2.47384L10.8105 2.4742L16.1089 7.49982M12.1899 15.9742L16.1089 7.49982M10.776 15.9397L10.957 15.7673M10.776 15.9397C10.776 15.9397 10.776 15.9397 10.776 15.9397L10.957 15.7673M10.776 15.9397C10.395 15.5397 10.4105 14.9067 10.8104 14.5258L10.9829 14.7068M10.957 15.7673C10.6713 15.4673 10.6829 14.9926 10.9829 14.7068M10.9829 14.7068L10.8105 14.5258L16.0872 9.49982M10.9829 14.7068L16.0872 9.49982M16.0872 9.49982L1.75 9.49982C1.19793 9.49982 0.75 9.05189 0.75 8.49982C0.75 7.94775 1.19793 7.49982 1.75 7.49982L16.1089 7.49982M16.0872 9.49982L16.1089 7.49982" fill="black" stroke="black" stroke-width="0.5"/>
</svg>
