<svg width="18" height="18" viewBox="0 0 18 18" fill="none" xmlns="http://www.w3.org/2000/svg">
<path d="M16.8832 15.5358L16.8832 15.5357L16.881 15.5335L14.0097 12.6854C15.1284 11.2368 15.667 9.42095 15.5167 7.59354C15.3627 5.72119 14.4972 3.97902 13.0981 2.72524C11.699 1.47145 9.87276 0.801364 7.99479 0.852751C6.11683 0.904139 4.32993 1.6731 3.00151 3.00151C1.6731 4.32993 0.904139 6.11683 0.852751 7.99479C0.801364 9.87276 1.47145 11.699 2.72524 13.0981C3.97902 14.4972 5.72119 15.3627 7.59354 15.5167C9.42113 15.6671 11.2372 15.1283 12.6859 14.0093L15.5335 16.857C15.5336 16.857 15.5336 16.8571 15.5336 16.8571C15.6219 16.946 15.7269 17.0166 15.8425 17.0648C15.9582 17.113 16.0823 17.1379 16.2077 17.1379C16.333 17.1379 16.4571 17.113 16.5728 17.0648C16.6886 17.0166 16.7936 16.946 16.8818 16.857L16.8832 16.8556C17.0543 16.6786 17.15 16.4419 17.15 16.1957C17.15 15.9494 17.0543 15.7128 16.8832 15.5358ZM8.21243 13.6591C7.13518 13.6591 6.08212 13.3397 5.18642 12.7412C4.29072 12.1427 3.59261 11.292 3.18036 10.2968C2.76812 9.30153 2.66025 8.20639 2.87042 7.14984C3.08058 6.09329 3.59932 5.12278 4.36105 4.36105C5.12278 3.59932 6.09329 3.08058 7.14984 2.87042C8.20639 2.66025 9.30153 2.76812 10.2968 3.18036C11.292 3.59261 12.1427 4.29072 12.7412 5.18642C13.3397 6.08212 13.6591 7.13518 13.6591 8.21243C13.6591 9.65698 13.0853 11.0424 12.0638 12.0638C11.0424 13.0853 9.65698 13.6591 8.21243 13.6591Z" fill="white" stroke="white" stroke-width="0.3"/>
</svg>
