<svg width="17" height="10" viewBox="0 0 17 10" fill="none" xmlns="http://www.w3.org/2000/svg">
<path d="M8.50928 10C8.73817 9.99387 8.9516 9.94787 9.14956 9.86201C9.34753 9.77614 9.5393 9.64121 9.72489 9.45722L16.5824 2.4931C16.8608 2.21711 17 1.87979 17 1.48114C17 1.20515 16.9319 0.956762 16.7959 0.735971C16.6659 0.509046 16.4896 0.331187 16.2669 0.202392C16.0442 0.067464 15.7968 0 15.5246 0C15.1163 0 14.7544 0.156394 14.4389 0.469181L8.1381 6.91812H8.88974L2.57041 0.469181C2.25491 0.156394 1.88992 0 1.47544 0C1.20324 0 0.955786 0.067464 0.733079 0.202392C0.510371 0.331187 0.330968 0.509046 0.194869 0.735971C0.0649563 0.956762 0 1.20515 0 1.48114C0 1.6774 0.0340247 1.86139 0.102074 2.03312C0.17631 2.19871 0.281477 2.35204 0.417576 2.4931L7.28439 9.45722C7.65557 9.81907 8.06386 10 8.50928 10Z" fill="#9B9FA6"/>
</svg>
